<svg version="1.1" id="Layer_1" xmlns="http://www.w3.org/2000/svg" xmlns:xlink="http://www.w3.org/1999/xlink" x="0px" y="0px"
	 width="100%" viewBox="0 0 512 512" enable-background="new 0 0 512 512" xml:space="preserve">
<path fill="#F3F6F9" opacity="1.000000" stroke="none" 
	d="
M15.000000,513.000000 
	C10.334670,513.000000 5.669340,513.000000 1.003007,513.000000 
	C1.002005,342.383545 1.002005,171.767105 1.002005,1.075323 
	C171.567535,1.075323 342.135132,1.075323 512.851318,1.075323 
	C512.851318,171.666565 512.851318,342.333282 512.851318,513.000000 
	C508.612152,513.000000 504.280182,513.000000 499.404907,512.558533 
	C498.421509,506.809509 498.290253,501.454956 497.490570,496.202148 
	C492.717407,464.849915 477.906769,438.466614 456.535126,415.604706 
	C424.500763,381.336426 384.633331,360.570587 339.367035,350.175049 
	C291.049164,339.078674 242.084274,339.330322 193.374542,346.506165 
	C147.003403,353.337524 105.129097,371.545563 70.026291,403.298553 
	C37.580795,432.647827 16.552856,468.013489 15.000000,513.000000 
M199.470520,101.952164 
	C157.844406,128.479599 138.500000,166.439209 144.434113,215.407471 
	C152.205612,279.537872 212.571548,323.528046 276.652924,311.892578 
	C323.145996,303.450714 354.118683,275.263794 366.494446,229.876312 
	C378.889801,184.416916 366.131042,144.565826 330.552246,113.551636 
	C293.834686,81.544815 244.053986,77.657631 199.470520,101.952164 
z"/>
<path fill="#0B4C8C" opacity="1.000000" stroke="none" 
	d="
M15.468657,513.000000 
	C16.552856,468.013489 37.580795,432.647827 70.026291,403.298553 
	C105.129097,371.545563 147.003403,353.337524 193.374542,346.506165 
	C242.084274,339.330322 291.049164,339.078674 339.367035,350.175049 
	C384.633331,360.570587 424.500763,381.336426 456.535126,415.604706 
	C477.906769,438.466614 492.717407,464.849915 497.490570,496.202148 
	C498.290253,501.454956 498.421509,506.809509 498.930786,512.558533 
	C337.979095,513.000000 176.958206,513.000000 15.468657,513.000000 
z"/>
<path fill="#0C4C8C" opacity="1.000000" stroke="none" 
	d="
M199.783325,101.758690 
	C244.053986,77.657631 293.834686,81.544815 330.552246,113.551636 
	C366.131042,144.565826 378.889801,184.416916 366.494446,229.876312 
	C354.118683,275.263794 323.145996,303.450714 276.652924,311.892578 
	C212.571548,323.528046 152.205612,279.537872 144.434113,215.407471 
	C138.500000,166.439209 157.844406,128.479599 199.783325,101.758690 
z"/>
</svg>