<svg version="1.1" id="Layer_1" xmlns="http://www.w3.org/2000/svg" xmlns:xlink="http://www.w3.org/1999/xlink" x="0px" y="0px"
	 width="100%" viewBox="0 0 690 379" enable-background="new 0 0 690 379" xml:space="preserve">
<path fill="#8C1C40" opacity="1.000000" stroke="none" 
	d="
M476.000000,380.000000 
	C317.370300,380.000000 159.240601,380.000000 1.055448,380.000000 
	C1.055448,253.733185 1.055448,127.466324 1.055448,1.099736 
	C230.879715,1.099736 460.759491,1.099736 690.819641,1.099736 
	C690.819641,127.333122 690.819641,253.666534 690.819641,380.000000 
	C619.466248,380.000000 547.983154,380.000000 476.000000,380.000000 
M419.894318,297.555450 
	C422.457275,297.294525 425.020233,297.033569 428.163727,296.522827 
	C429.110229,296.069366 430.056702,295.615906 431.923065,295.041809 
	C436.476440,294.952087 441.029816,294.862366 446.163727,294.522797 
	C447.110199,294.069336 448.056702,293.615875 449.933258,293.041779 
	C453.925507,293.027863 457.917755,293.008179 461.910004,293.000916 
	C493.347534,292.943695 524.785034,292.888885 556.865662,292.951294 
	C557.792542,292.540558 558.719421,292.129822 559.808228,291.264496 
	C559.808228,291.264496 559.426025,290.969971 559.915100,291.225739 
	C560.316223,290.830109 560.717407,290.434509 561.935974,290.009766 
	C563.296204,289.950958 564.656372,289.892151 566.721863,289.902039 
	C568.642822,288.400696 568.416870,287.389343 565.560547,286.270630 
	C563.024658,286.810699 560.488708,287.350769 557.417236,288.135254 
	C556.945129,288.479034 556.473022,288.822845 555.070618,289.042847 
	C519.713867,289.084106 484.357086,289.125366 448.323944,289.284180 
	C446.883087,289.911682 445.442230,290.539185 443.081818,291.042908 
	C439.054657,291.084167 435.027466,291.125397 430.323944,291.284180 
	C428.883087,291.911682 427.442200,292.539154 425.150543,293.043030 
	C423.433960,293.084229 421.717346,293.125458 419.426361,293.208069 
	C418.951355,293.527588 418.476349,293.847137 417.231659,294.043182 
	C416.192719,294.042816 415.153778,294.042450 413.500061,294.041809 
	C413.295135,294.041931 413.090240,294.042084 411.967285,294.010864 
	C407.292419,294.062775 402.617584,294.114716 398.000458,293.999969 
	C398.000458,293.999969 398.058380,293.833344 398.023102,293.184448 
	C398.000977,292.751770 397.978882,292.319122 398.030273,291.182190 
	C409.998596,272.000244 417.443726,251.065659 422.711243,228.592499 
	C423.909027,224.174240 425.170593,219.772003 426.285553,215.332947 
	C427.274902,211.394012 428.790588,207.429077 428.876465,203.449768 
	C429.189240,188.960754 428.825409,174.457657 429.095612,159.966919 
	C429.189026,154.957703 428.004913,150.610748 425.760071,146.241745 
	C424.391296,143.577759 423.837128,140.489792 422.962738,137.578552 
	C421.833923,133.820251 421.421814,129.660217 419.513458,126.359886 
	C415.021545,118.591522 409.990814,111.115608 404.872406,103.733307 
	C398.148987,94.036163 389.740814,85.917404 379.866730,79.487030 
	C371.066010,73.755646 361.641022,68.942604 353.083984,62.887108 
	C341.653107,54.797894 328.493164,50.885403 315.749359,45.923473 
	C310.130280,43.735645 304.386566,41.723351 298.535156,40.313129 
	C291.072174,38.514500 283.491791,36.705616 275.873138,36.173130 
	C265.810059,35.469795 255.660828,36.000069 244.796631,36.000069 
	C245.876175,26.894068 242.881058,18.101902 248.360977,9.394561 
	C246.180328,8.870955 244.366669,8.053622 242.567245,8.083817 
	C238.953079,8.144467 235.349121,8.922781 231.736679,8.957109 
	C213.067245,9.134518 194.362823,8.230361 175.788376,11.004035 
	C175.133606,11.101810 174.463913,11.100369 173.809616,11.200450 
	C163.385223,12.794968 152.950699,14.328008 142.543045,16.025545 
	C135.939926,17.102543 129.190186,17.836853 122.860100,19.842054 
	C118.405441,21.253162 115.616913,20.121059 112.065742,17.803276 
	C108.203247,15.282290 103.767670,12.976451 99.300117,12.201407 
	C92.670212,11.051235 85.783844,10.982533 79.023605,11.147651 
	C75.636627,11.230378 72.287140,12.848166 68.662117,13.842632 
	C71.194077,20.909334 73.388916,27.035130 75.700653,33.487190 
	C69.979759,35.735996 64.064445,38.186111 58.031239,40.299683 
	C57.114262,40.620918 55.026585,39.715366 54.539932,38.808605 
	C51.245613,32.670395 48.170158,26.410233 45.212292,20.101198 
	C44.810066,19.243267 45.522976,17.897976 45.599995,16.770176 
	C45.680923,15.585016 45.618107,14.390039 45.618107,13.199352 
	C45.184742,12.999056 44.751377,12.798759 44.318016,12.598462 
	C43.247955,13.996066 41.962074,15.282339 41.167755,16.822182 
	C40.352516,18.402580 40.393127,20.490135 39.412819,21.909229 
	C32.154224,32.416733 32.874161,44.300167 33.065388,56.162651 
	C33.096935,58.119911 32.644955,60.902199 31.338013,61.924416 
	C25.197008,66.727592 23.714144,73.004486 23.928055,80.318962 
	C24.096489,86.078514 23.620377,91.856911 23.427340,97.724800 
	C24.952015,97.523880 27.287092,97.393852 29.536119,96.884140 
	C34.822800,95.685966 40.078358,93.142647 45.328957,93.187744 
	C81.375244,93.497322 117.415741,94.417580 153.460861,94.957008 
	C167.148590,95.161842 165.828842,93.975426 166.111465,107.712761 
	C166.213654,112.679131 165.232208,116.365929 161.116943,119.569275 
	C157.116791,122.683014 153.645126,126.542213 150.268204,130.362915 
	C148.489395,132.375504 146.120377,135.089401 146.267792,137.339233 
	C146.628464,142.844040 143.810257,146.982483 141.931442,151.564896 
	C139.957016,156.380554 137.902100,161.163223 135.256607,166.267075 
	C132.406082,167.822037 129.721939,169.999573 126.673576,170.814148 
	C117.856804,173.170090 108.888832,174.957336 99.989243,177.007019 
	C92.843048,178.652878 85.707863,180.346786 78.571823,182.036469 
	C73.052063,183.343430 67.603333,185.249680 62.009125,185.882294 
	C49.363033,187.312347 38.919018,181.427338 29.102203,174.459259 
	C25.990307,172.250381 22.319565,169.506546 21.132092,166.206100 
	C19.149164,160.694763 15.717773,160.796539 11.087684,161.323242 
	C11.087684,170.554474 9.945906,179.880692 11.376622,188.793976 
	C13.166047,199.941986 15.290254,210.978058 16.402424,222.262833 
	C16.776646,226.059937 21.348377,231.948654 24.686872,232.466873 
	C33.794113,233.880524 43.410957,233.970352 52.560844,232.690109 
	C66.232513,230.777206 79.678818,227.250107 93.217964,224.395309 
	C98.489822,223.283691 103.763084,221.150711 109.018867,221.202194 
	C120.406631,221.313766 131.425461,220.504868 141.504700,214.722748 
	C149.237976,210.286453 156.951630,205.792801 164.445190,200.969193 
	C170.435059,197.113495 176.080353,192.722473 181.445618,188.879181 
	C187.153885,195.892548 192.076721,203.597656 198.606247,209.536194 
	C206.439865,216.660782 215.718155,222.175720 225.422455,226.680527 
	C227.150681,227.482773 229.200592,227.903427 231.113464,227.942947 
	C239.627319,228.118744 248.038010,228.174377 256.327515,225.096252 
	C265.193237,221.804169 274.487854,219.682114 283.458038,216.644135 
	C285.278198,216.027695 287.971588,213.300629 287.719299,212.066299 
	C286.631500,206.743576 285.116577,201.363815 282.762543,196.484665 
	C280.393005,191.573456 276.719727,187.307755 273.848694,182.617813 
	C270.347839,176.899094 267.297760,170.897980 263.674500,165.262131 
	C258.280396,156.871704 250.256073,151.389709 241.365601,147.464279 
	C238.622818,146.253265 234.076218,143.507187 231.260468,149.199265 
	C234.232254,149.904144 237.370834,149.752579 239.098297,151.239914 
	C243.013306,154.610733 249.067398,153.708206 252.160080,158.830032 
	C254.422943,162.577606 258.538940,165.184555 260.929352,168.881577 
	C265.005981,175.186554 267.816254,182.352203 272.188385,188.413437 
	C277.358856,195.581467 283.144165,202.201553 283.301819,212.197464 
	C283.446869,212.094955 283.079193,212.516891 282.626160,212.651306 
	C269.826569,216.449173 257.179260,220.959457 244.166443,223.783844 
	C231.062271,226.628082 219.519974,221.139374 209.633667,212.931793 
	C203.095840,207.504105 197.376953,201.057953 191.533554,194.840210 
	C188.869568,192.005524 186.790649,188.621002 184.274384,185.255890 
	C186.212708,184.216339 187.395554,183.719223 188.429153,183.005875 
	C196.597534,177.368378 204.809174,171.789429 212.866180,165.995926 
	C221.125473,160.056946 226.328629,151.647461 229.807861,142.390793 
	C232.348846,135.630417 233.779465,128.415314 235.289948,121.314621 
	C237.090103,112.852119 238.729630,104.334343 239.912857,95.767876 
	C241.007935,87.839485 241.396713,79.814095 242.139603,71.835426 
	C242.198090,71.207268 242.594162,70.610542 242.957108,69.070534 
	C243.252930,62.710842 243.548752,56.351154 244.838959,50.067696 
	C245.170410,50.093094 245.501862,50.118496 245.989655,50.793396 
	C246.993088,55.221771 248.684296,59.622646 248.862686,64.084007 
	C249.288193,74.725494 249.210602,85.401611 248.902985,96.051231 
	C248.766739,100.767632 248.688980,106.044746 246.579529,109.997139 
	C244.188705,114.476677 244.002304,118.735344 244.009384,123.326866 
	C244.018661,129.329880 244.661728,129.794662 250.578171,130.030182 
	C264.325714,130.577438 277.541077,127.107971 291.001099,125.334892 
	C310.849701,122.720261 329.082794,127.872253 343.899292,142.362366 
	C347.921021,146.295486 352.044678,150.146194 356.357513,153.752563 
	C359.466095,156.351929 363.104736,158.311874 366.258820,160.863693 
	C371.128174,164.803253 376.434601,168.469315 380.365540,173.233398 
	C385.110870,178.984406 389.009521,185.548294 392.550934,192.148636 
	C396.706604,199.893875 401.656647,207.586456 400.026184,217.156418 
	C399.833191,218.289307 399.862640,219.503082 400.025574,220.645630 
	C400.523712,224.139267 399.561829,227.011139 396.166504,229.703842 
	C395.371613,230.485214 394.714630,231.600403 393.759888,231.994965 
	C386.328949,235.065842 379.014984,238.596039 371.330139,240.835724 
	C359.190979,244.373550 346.728943,246.793121 334.540802,250.179871 
	C331.045319,251.151169 327.591309,253.349533 324.876404,255.818848 
	C319.859039,260.382294 315.527496,265.690430 310.662415,270.434174 
	C307.908508,273.119415 304.813446,275.528625 301.601135,277.652435 
	C296.874847,280.777252 291.929108,283.574524 287.034912,286.439667 
	C282.248993,289.241425 277.712921,293.251801 272.537445,294.457184 
	C258.002045,297.842468 243.181000,299.004791 228.489899,294.738892 
	C225.069611,293.745758 221.687805,292.551117 218.403107,291.175140 
	C212.588562,288.739319 206.372742,286.821960 201.216858,283.359406 
	C194.009537,278.519165 186.916367,273.102112 181.102676,266.721558 
	C176.400040,261.560394 173.139526,254.849411 170.184402,248.393295 
	C166.718643,240.821609 164.577606,232.646896 161.179306,225.038651 
	C160.313828,223.100983 156.730255,221.037720 154.631699,221.260147 
	C149.770142,221.775467 145.110184,223.937073 140.264130,224.912796 
	C132.412537,226.493713 124.520164,228.090057 116.565575,228.882217 
	C108.008934,229.734314 99.355286,229.573547 90.756920,230.076355 
	C88.920029,230.183777 87.138878,231.244492 85.332047,231.866043 
	C85.435074,232.388306 85.538094,232.910583 85.641121,233.432846 
	C87.478996,233.758591 89.316872,234.084351 91.000244,234.382721 
	C91.000244,244.336960 90.811653,253.989792 91.048447,263.632172 
	C91.338081,275.425812 93.728127,286.763000 100.046318,296.939270 
	C101.590065,299.425690 103.370293,301.994232 105.635414,303.766174 
	C118.969391,314.196930 134.564972,320.719452 150.098495,326.570618 
	C164.534088,332.008209 178.601059,338.591888 194.315338,341.116241 
	C208.510223,343.396576 222.698196,345.294800 236.955048,345.809265 
	C257.590729,346.553955 278.278839,346.287476 298.933685,345.888123 
	C310.630951,345.661926 322.329773,343.646484 332.992798,338.809814 
	C345.436005,333.165619 357.740997,330.426056 371.719208,330.642792 
	C413.975189,331.298096 456.255798,330.210480 498.527802,330.035553 
	C538.519165,329.870056 578.511719,330.004761 618.503784,329.983917 
	C620.316589,329.982971 622.129333,329.750061 623.942078,329.625183 
	C624.008057,328.890991 624.074036,328.156799 624.140076,327.422577 
	C621.683472,326.948456 619.224670,326.049866 616.770752,326.063080 
	C570.833008,326.310272 524.896240,326.771973 478.958405,326.965424 
	C440.800049,327.126099 402.640411,327.002136 364.481354,326.980438 
	C363.089935,326.979645 361.698639,326.726227 359.741516,326.535370 
	C360.608124,325.380035 360.897980,324.748413 361.386200,324.378784 
	C372.164673,316.219269 383.772919,309.102844 392.878754,298.833862 
	C393.795685,297.799835 396.255646,298.134094 398.921265,297.957031 
	C405.605011,297.912079 412.288727,297.867126 418.995972,297.795288 
	C418.995972,297.795288 419.052002,297.820923 419.894318,297.555450 
M552.356934,359.008301 
	C555.602417,359.516846 558.839050,360.092529 562.094910,360.522247 
	C576.105286,362.371460 590.083862,365.278595 604.143616,365.758301 
	C629.272156,366.615631 654.450928,366.005035 679.608704,365.988098 
	C681.331238,365.986938 683.053711,365.819336 684.776184,365.729126 
	C684.909790,365.087250 685.043396,364.445374 685.177002,363.803497 
	C683.007141,363.202606 680.839783,362.089996 678.666931,362.079132 
	C653.951111,361.955505 629.230835,362.240173 604.519836,361.873627 
	C595.502014,361.739899 586.467285,360.438629 577.508606,359.182159 
	C564.501038,357.357849 551.556946,355.082062 538.583069,353.015686 
	C524.639587,350.794861 510.619537,348.972870 496.766083,346.289246 
	C478.769470,342.802979 460.750092,339.842041 442.368500,340.040253 
	C432.423157,340.147491 422.484436,340.781342 412.538757,340.965668 
	C403.711548,341.129272 394.878693,340.964355 386.048950,341.030243 
	C384.254547,341.043610 382.456390,341.396240 380.671173,341.666718 
	C365.378693,343.983337 350.307037,347.666718 334.603241,347.116577 
	C319.294128,346.580231 303.951477,347.000122 288.623566,347.000183 
	C286.853241,347.000214 285.082947,347.000183 283.312622,347.000183 
	C283.126526,347.665558 282.940430,348.330933 282.754333,348.996307 
	C284.452057,349.663666 286.145966,350.900208 287.848083,350.911530 
	C308.006714,351.046173 328.166626,351.008820 348.326080,350.972198 
	C349.625519,350.969818 350.926147,350.613403 352.223022,350.401947 
	C363.242096,348.605438 374.202972,345.955566 385.292542,345.204834 
	C401.680725,344.095398 418.162384,344.004028 434.600067,344.112854 
	C446.157196,344.189362 457.784332,344.702087 469.241943,346.129822 
	C485.023041,348.096313 500.665894,351.158905 516.382751,353.658752 
	C528.061951,355.516418 539.764648,357.226074 552.356934,359.008301 
M99.454781,154.002060 
	C108.697449,149.943497 109.259689,141.454468 109.876465,133.132553 
	C109.960007,132.005341 108.420097,130.757797 107.631897,129.565979 
	C107.079323,130.841675 106.038010,132.124847 106.057350,133.391815 
	C106.149506,139.429443 104.513306,146.032654 100.072578,148.788147 
	C92.164062,153.695389 83.141640,158.047867 74.077141,159.533813 
	C63.063599,161.339249 51.479671,160.539169 40.228867,159.703568 
	C33.204868,159.181885 30.599775,156.977997 33.967896,148.434219 
	C32.111893,148.892822 29.983528,149.574509 29.205393,150.995544 
	C26.699574,155.571716 30.376080,162.028931 36.581909,162.810364 
	C44.420444,163.797394 52.437134,163.294312 60.312695,164.079086 
	C74.416397,165.484467 86.628410,160.208908 99.454781,154.002060 
M312.679291,146.019669 
	C311.463013,145.529953 310.187225,144.546082 309.046417,144.683380 
	C307.795563,144.833923 305.566284,146.474289 305.653259,146.684753 
	C307.053711,150.074982 304.745605,151.241440 302.630981,153.031097 
	C297.410187,157.449463 295.982971,162.860947 300.381592,165.961853 
	C303.624908,168.248276 309.267853,167.290176 313.847321,167.351776 
	C314.541901,167.361115 315.817169,165.082489 315.881256,163.814514 
	C316.124268,159.005081 316.132080,154.167633 315.865967,149.360703 
	C315.804749,148.254837 314.306030,147.228546 312.679291,146.019669 
M195.137283,230.876953 
	C193.310013,230.917221 191.482758,230.957504 189.655472,230.997772 
	C190.060150,235.749405 188.908600,241.634476 191.310074,244.931839 
	C193.680786,248.186966 199.644943,248.824951 204.996796,251.003555 
	C204.996796,244.574371 205.339386,239.432480 204.826736,234.377335 
	C204.624130,232.379501 202.888260,229.949310 201.140778,228.914139 
	C200.075104,228.282867 197.656967,229.934753 195.137283,230.876953 
M353.925934,220.790863 
	C353.925934,216.676514 353.925934,212.562164 353.925934,207.773376 
	C349.520813,207.773376 345.564362,207.773376 341.524475,207.773376 
	C340.807281,205.139542 340.132874,202.662903 339.200073,199.237305 
	C335.337708,202.767563 333.522644,206.708206 333.098358,211.018524 
	C332.434204,217.765839 334.709198,219.829178 341.445923,220.068893 
	C343.261505,220.133499 345.879028,220.466110 346.693970,221.657181 
	C349.353333,225.543930 351.402588,224.296158 353.925934,220.790863 
M272.840759,264.555450 
	C274.529724,261.838043 276.225922,259.377350 280.164917,259.800385 
	C280.983887,259.888336 282.539490,257.925507 282.873871,256.672485 
	C283.485229,254.381500 276.840271,246.265518 274.477570,246.293320 
	C273.522461,246.304535 272.354980,247.120407 271.674805,247.907623 
	C270.017242,249.826080 268.959564,252.470917 266.983032,253.858749 
	C263.718811,256.150726 261.783539,258.860779 263.414398,262.528778 
	C265.114746,266.353027 268.525757,266.681854 272.840759,264.555450 
M50.999996,131.379303 
	C51.000000,127.388153 50.780346,123.380913 51.071255,119.411079 
	C51.293892,116.372879 49.362419,112.606079 53.506924,110.522400 
	C53.818535,110.365730 53.752903,108.474930 53.523487,108.397697 
	C52.574062,108.078079 50.860382,107.716347 50.569847,108.144783 
	C49.176472,110.199570 47.376221,112.426933 47.139774,114.738190 
	C46.236832,123.564484 45.846336,132.444855 45.377949,141.311035 
	C45.336884,142.088425 46.119476,143.572327 46.524742,143.574142 
	C47.406265,143.578171 48.914639,142.993454 49.070553,142.373627 
	C49.900280,139.075119 50.391548,135.691498 50.999996,131.379303 
M79.594902,118.134247 
	C78.929848,115.073204 78.264801,112.012161 77.599747,108.951126 
	C77.077248,108.869400 76.554749,108.787674 76.032249,108.705940 
	C75.390594,109.782478 74.139435,110.898087 74.205528,111.929245 
	C74.657249,118.975731 75.334900,126.009605 76.044136,133.037003 
	C76.458504,137.142776 78.868652,140.230637 81.325066,140.420517 
	C80.849266,133.292450 80.372078,126.143715 79.594902,118.134247 
z"/>
<path fill="#FBAD19" opacity="1.000000" stroke="none" 
	d="
M396.720642,229.184631 
	C399.561829,227.011139 400.523712,224.139267 400.025574,220.645630 
	C399.862640,219.503082 399.833191,218.289307 400.026184,217.156418 
	C401.656647,207.586456 396.706604,199.893875 392.550934,192.148636 
	C389.009521,185.548294 385.110870,178.984406 380.365540,173.233398 
	C376.434601,168.469315 371.128174,164.803253 366.258820,160.863693 
	C363.104736,158.311874 359.466095,156.351929 356.357513,153.752563 
	C352.044678,150.146194 347.921021,146.295486 343.899292,142.362366 
	C329.082794,127.872253 310.849701,122.720261 291.001099,125.334892 
	C277.541077,127.107971 264.325714,130.577438 250.578171,130.030182 
	C244.661728,129.794662 244.018661,129.329880 244.009384,123.326866 
	C244.002304,118.735344 244.188705,114.476677 246.579529,109.997139 
	C248.688980,106.044746 248.766739,100.767632 248.902985,96.051231 
	C249.210602,85.401611 249.288193,74.725494 248.862686,64.084007 
	C248.684296,59.622646 246.993088,55.221771 245.966431,50.211182 
	C245.243683,49.749798 244.544128,49.870628 243.844574,49.991463 
	C243.548752,56.351154 243.252930,62.710842 242.500061,69.532227 
	C240.989197,69.982956 239.935379,69.971992 238.925568,69.496750 
	C239.646393,56.182518 240.420563,43.336620 240.957031,30.480803 
	C241.208069,24.465321 241.000000,18.430679 241.000000,13.000000 
	C237.061661,13.000000 231.818649,12.842939 226.587845,13.029027 
	C209.940857,13.621250 193.298325,14.339479 176.654465,15.018163 
	C175.995285,15.045041 175.334412,15.133708 174.683563,15.246752 
	C165.593033,16.825687 156.550934,19.266357 147.402115,19.769009 
	C137.518921,20.312002 128.208084,22.193562 118.777657,25.778040 
	C119.820953,34.742538 118.529808,41.903450 110.813889,48.367882 
	C104.367645,53.768574 98.039581,55.130379 90.566010,54.874084 
	C89.635872,54.842190 88.583488,53.314121 87.891350,52.276764 
	C84.848679,47.716488 81.967613,43.047646 78.879578,38.519348 
	C78.511749,37.979973 77.127419,37.695614 76.397934,37.912064 
	C71.621208,39.329346 66.300735,40.005352 62.271519,42.631863 
	C52.817726,48.794476 43.191124,54.693581 35.156288,63.025272 
	C27.106142,71.372833 27.455347,80.720329 28.491158,91.193268 
	C35.103966,90.427551 41.260902,89.182777 47.433716,89.098328 
	C66.917641,88.831772 86.412041,88.738411 105.893814,89.074745 
	C124.774742,89.400696 143.646530,90.303223 162.518936,91.040154 
	C166.911789,91.211685 169.876709,94.565536 169.975174,99.253853 
	C170.073074,103.915497 170.270508,108.604179 169.873505,113.233765 
	C169.697479,115.286560 168.590607,117.617630 167.173889,119.141556 
	C162.084198,124.616409 156.661423,129.780533 151.424286,135.120697 
	C150.778397,135.779297 150.045227,136.829025 150.113342,137.633041 
	C150.526108,142.505005 149.401566,146.880127 147.054703,151.185410 
	C143.917068,156.941299 141.223602,162.939301 138.133484,168.513580 
	C137.245850,167.449326 136.564102,166.704819 135.882370,165.960312 
	C137.902100,161.163223 139.957016,156.380554 141.931442,151.564896 
	C143.810257,146.982483 146.628464,142.844040 146.267792,137.339233 
	C146.120377,135.089401 148.489395,132.375504 150.268204,130.362915 
	C153.645126,126.542213 157.116791,122.683014 161.116943,119.569275 
	C165.232208,116.365929 166.213654,112.679131 166.111465,107.712761 
	C165.828842,93.975426 167.148590,95.161842 153.460861,94.957008 
	C117.415741,94.417580 81.375244,93.497322 45.328957,93.187744 
	C40.078358,93.142647 34.822800,95.685966 29.536119,96.884140 
	C27.287092,97.393852 24.952015,97.523880 23.427340,97.724800 
	C23.620377,91.856911 24.096489,86.078514 23.928055,80.318962 
	C23.714144,73.004486 25.197008,66.727592 31.338013,61.924416 
	C32.644955,60.902199 33.096935,58.119911 33.065388,56.162651 
	C32.874161,44.300167 32.154224,32.416733 39.412819,21.909229 
	C40.393127,20.490135 40.352516,18.402580 41.167755,16.822182 
	C41.962074,15.282339 43.247955,13.996066 44.318016,12.598462 
	C44.751377,12.798759 45.184742,12.999056 45.618107,13.199352 
	C45.618107,14.390039 45.680923,15.585016 45.599995,16.770176 
	C45.522976,17.897976 44.810066,19.243267 45.212292,20.101198 
	C48.170158,26.410233 51.245613,32.670395 54.539932,38.808605 
	C55.026585,39.715366 57.114262,40.620918 58.031239,40.299683 
	C64.064445,38.186111 69.979759,35.735996 75.700653,33.487190 
	C73.388916,27.035130 71.194077,20.909334 68.662117,13.842632 
	C72.287140,12.848166 75.636627,11.230378 79.023605,11.147651 
	C85.783844,10.982533 92.670212,11.051235 99.300117,12.201407 
	C103.767670,12.976451 108.203247,15.282290 112.065742,17.803276 
	C115.616913,20.121059 118.405441,21.253162 122.860100,19.842054 
	C129.190186,17.836853 135.939926,17.102543 142.543045,16.025545 
	C152.950699,14.328008 163.385223,12.794968 173.809616,11.200450 
	C174.463913,11.100369 175.133606,11.101810 175.788376,11.004035 
	C194.362823,8.230361 213.067245,9.134518 231.736679,8.957109 
	C235.349121,8.922781 238.953079,8.144467 242.567245,8.083817 
	C244.366669,8.053622 246.180328,8.870955 248.360977,9.394561 
	C242.881058,18.101902 245.876175,26.894068 244.796631,36.000069 
	C255.660828,36.000069 265.810059,35.469795 275.873138,36.173130 
	C283.491791,36.705616 291.072174,38.514500 298.535156,40.313129 
	C304.386566,41.723351 310.130280,43.735645 315.749359,45.923473 
	C328.493164,50.885403 341.653107,54.797894 353.083984,62.887108 
	C361.641022,68.942604 371.066010,73.755646 379.866730,79.487030 
	C389.740814,85.917404 398.148987,94.036163 404.872406,103.733307 
	C409.990814,111.115608 415.021545,118.591522 419.513458,126.359886 
	C421.421814,129.660217 421.833923,133.820251 422.962738,137.578552 
	C423.837128,140.489792 424.391296,143.577759 425.760071,146.241745 
	C428.004913,150.610748 429.189026,154.957703 429.095612,159.966919 
	C428.825409,174.457657 429.189240,188.960754 428.876465,203.449768 
	C428.790588,207.429077 427.274902,211.394012 426.285553,215.332947 
	C425.170593,219.772003 423.909027,224.174240 422.089478,228.701111 
	C420.605713,228.526810 419.743652,228.243896 418.930420,227.561401 
	C419.031982,226.665466 419.025970,226.154358 419.146301,225.674957 
	C421.088013,217.939316 424.183502,210.289185 424.744354,202.456894 
	C425.681824,189.364319 424.836884,176.152817 425.088013,162.997971 
	C425.183594,157.991455 424.883423,153.368530 422.508942,148.767609 
	C420.771698,145.401352 420.125824,141.474670 418.967590,137.805969 
	C417.838531,134.229736 417.236694,130.342850 415.412567,127.160233 
	C411.602051,120.511795 407.341553,114.093269 402.896576,107.842972 
	C396.060089,98.229919 388.351410,89.387238 378.182678,83.071556 
	C368.295166,76.930573 358.569672,70.485809 348.386536,64.876045 
	C338.685425,59.531815 328.579407,54.883583 318.464600,50.345768 
	C313.429810,48.086998 308.058838,46.428261 302.690796,45.101719 
	C296.816925,43.650177 290.808655,42.513107 284.791809,41.918121 
	C273.028870,40.754917 261.219177,40.063999 250.229187,39.237736 
	C251.206818,54.957905 252.172531,69.370987 252.960114,83.793793 
	C253.214035,88.444077 253.377335,93.159355 252.896622,97.773483 
	C252.374359,102.786491 251.101074,107.726189 250.066879,112.679405 
	C249.196289,116.848999 248.198959,120.992111 247.117722,125.764999 
	C255.157532,125.764999 261.836273,126.378067 268.349884,125.603027 
	C275.762177,124.721046 282.976898,121.627960 290.367706,121.247307 
	C301.141052,120.692444 311.757416,120.832901 322.589294,124.586060 
	C335.456696,129.044510 344.170868,138.433716 354.446320,146.025162 
	C359.016846,149.401855 363.244080,153.245178 367.606354,156.901428 
	C373.022766,161.441223 379.166779,165.381592 383.625549,170.724884 
	C388.785736,176.908752 392.697235,184.199280 396.705017,191.262314 
	C400.910706,198.674118 405.631927,206.029755 404.061798,215.325775 
	C403.651489,217.755142 403.905792,220.316925 404.018494,222.810486 
	C404.292206,228.867233 400.633545,232.311646 396.089539,234.741379 
	C396.354492,232.612259 396.537567,230.898453 396.720642,229.184631 
M53.452187,43.817852 
	C53.540882,43.695557 53.722446,43.483818 53.704021,43.464695 
	C53.501595,43.254513 53.268013,43.074333 52.733635,42.281586 
	C49.419052,36.564751 46.104469,30.847916 42.334644,24.345901 
	C37.480972,34.107277 36.047108,43.614754 37.490231,54.287174 
	C43.008034,50.567986 48.003807,47.200661 53.452187,43.817852 
M113.170952,40.414925 
	C113.720467,35.585827 116.357162,29.416420 114.321968,26.247133 
	C111.393959,21.687519 105.467766,18.018368 100.083290,16.348127 
	C94.126045,14.500218 87.340164,15.211378 80.908943,15.037951 
	C75.405632,14.889544 72.742767,18.386181 75.309387,23.194944 
	C79.339668,30.746033 83.672997,38.243080 88.795990,45.074604 
	C94.546288,52.742653 97.753395,52.761341 105.699532,47.057663 
	C108.219612,45.248768 110.513504,43.124744 113.170952,40.414925 
z"/>
<path fill="#FBAD19" opacity="1.000000" stroke="none" 
	d="
M396.443573,229.444244 
	C396.537567,230.898453 396.354492,232.612259 395.907227,235.019348 
	C394.660645,235.901947 393.678253,236.091278 392.353546,236.389877 
	C390.977631,237.075607 389.944061,237.652100 388.716919,238.472977 
	C388.233643,238.517456 387.943970,238.317535 387.377289,238.275787 
	C386.400238,238.900421 385.700165,239.366882 384.676270,240.004395 
	C380.072723,241.793472 375.892395,243.783752 371.494171,244.958176 
	C359.428558,248.179871 347.227631,250.898865 335.183990,254.195755 
	C332.473969,254.937592 329.918091,256.921814 327.752014,258.851349 
	C319.347382,266.338135 311.378113,274.332123 302.749054,281.541626 
	C297.395813,286.014221 291.293274,289.661560 285.265656,293.238831 
	C276.027924,298.721252 265.915436,301.187531 255.131714,301.024872 
	C244.438080,300.863586 233.649948,301.886230 223.326035,297.938721 
	C218.066269,295.927612 212.431244,294.591583 207.597687,291.840332 
	C199.310852,287.123535 190.872421,282.437042 184.365540,275.144714 
	C182.758591,273.343781 181.047668,271.589935 179.166336,270.087708 
	C172.335526,264.633301 169.430542,256.683258 166.156845,249.126099 
	C163.670273,243.385986 162.959183,236.865524 160.387863,231.175964 
	C156.235535,221.988083 151.150131,224.099869 144.685211,227.799866 
	C144.118317,228.124329 143.627213,228.756699 143.040466,228.845139 
	C131.405350,230.598862 119.781174,232.451797 108.108498,233.915588 
	C103.917946,234.441116 99.606155,233.999908 95.946434,233.999908 
	C95.946434,246.395447 95.982666,257.982819 95.935570,269.569824 
	C95.893990,279.799133 99.336113,288.872864 105.101318,297.125183 
	C106.396423,298.979004 108.178886,300.600769 110.015518,301.950287 
	C122.282837,310.963898 136.253632,316.989899 150.257462,322.279114 
	C164.722443,327.742554 178.673965,335.116821 194.478073,336.830536 
	C203.278183,337.784760 211.941895,340.193359 220.748505,340.843536 
	C233.208176,341.763428 245.741379,341.786224 258.246399,341.964722 
	C269.909973,342.131195 281.593628,342.371674 293.238525,341.876282 
	C301.755463,341.513977 310.384064,340.721436 318.676331,338.850647 
	C330.953827,336.080750 342.933655,332.378784 352.962219,323.857208 
	C358.098694,319.492584 364.547302,316.708344 370.189545,312.894226 
	C378.663666,307.165741 386.622375,301.001251 392.538422,292.254700 
	C401.123901,279.561615 407.085510,265.742249 411.956726,251.381516 
	C414.569794,243.678070 416.592499,235.774338 418.881622,227.960999 
	C419.743652,228.243896 420.605713,228.526810 421.785797,228.930847 
	C417.443726,251.065659 409.998596,272.000244 397.737976,291.679993 
	C397.649933,292.729675 397.854156,293.281494 398.058380,293.833344 
	C398.058380,293.833344 398.000458,293.999969 397.979156,294.449951 
	C397.971741,295.877747 397.985657,296.855530 397.999573,297.833344 
	C396.255646,298.134094 393.795685,297.799835 392.878754,298.833862 
	C383.772919,309.102844 372.164673,316.219269 361.386200,324.378784 
	C360.897980,324.748413 360.608124,325.380035 359.741516,326.535370 
	C361.698639,326.726227 363.089935,326.979645 364.481354,326.980438 
	C402.640411,327.002136 440.800049,327.126099 478.958405,326.965424 
	C524.896240,326.771973 570.833008,326.310272 616.770752,326.063080 
	C619.224670,326.049866 621.683472,326.948456 624.140076,327.422577 
	C624.074036,328.156799 624.008057,328.890991 623.942078,329.625183 
	C622.129333,329.750061 620.316589,329.982971 618.503784,329.983917 
	C578.511719,330.004761 538.519165,329.870056 498.527802,330.035553 
	C456.255798,330.210480 413.975189,331.298096 371.719208,330.642792 
	C357.740997,330.426056 345.436005,333.165619 332.992798,338.809814 
	C322.329773,343.646484 310.630951,345.661926 298.933685,345.888123 
	C278.278839,346.287476 257.590729,346.553955 236.955048,345.809265 
	C222.698196,345.294800 208.510223,343.396576 194.315338,341.116241 
	C178.601059,338.591888 164.534088,332.008209 150.098495,326.570618 
	C134.564972,320.719452 118.969391,314.196930 105.635414,303.766174 
	C103.370293,301.994232 101.590065,299.425690 100.046318,296.939270 
	C93.728127,286.763000 91.338081,275.425812 91.048447,263.632172 
	C90.811653,253.989792 91.000244,244.336960 91.000244,234.382721 
	C89.316872,234.084351 87.478996,233.758591 85.641121,233.432846 
	C85.538094,232.910583 85.435074,232.388306 85.332047,231.866043 
	C87.138878,231.244492 88.920029,230.183777 90.756920,230.076355 
	C99.355286,229.573547 108.008934,229.734314 116.565575,228.882217 
	C124.520164,228.090057 132.412537,226.493713 140.264130,224.912796 
	C145.110184,223.937073 149.770142,221.775467 154.631699,221.260147 
	C156.730255,221.037720 160.313828,223.100983 161.179306,225.038651 
	C164.577606,232.646896 166.718643,240.821609 170.184402,248.393295 
	C173.139526,254.849411 176.400040,261.560394 181.102676,266.721558 
	C186.916367,273.102112 194.009537,278.519165 201.216858,283.359406 
	C206.372742,286.821960 212.588562,288.739319 218.403107,291.175140 
	C221.687805,292.551117 225.069611,293.745758 228.489899,294.738892 
	C243.181000,299.004791 258.002045,297.842468 272.537445,294.457184 
	C277.712921,293.251801 282.248993,289.241425 287.034912,286.439667 
	C291.929108,283.574524 296.874847,280.777252 301.601135,277.652435 
	C304.813446,275.528625 307.908508,273.119415 310.662415,270.434174 
	C315.527496,265.690430 319.859039,260.382294 324.876404,255.818848 
	C327.591309,253.349533 331.045319,251.151169 334.540802,250.179871 
	C346.728943,246.793121 359.190979,244.373550 371.330139,240.835724 
	C379.014984,238.596039 386.328949,235.065842 393.759888,231.994965 
	C394.714630,231.600403 395.371613,230.485214 396.443573,229.444244 
M359.869110,326.498047 
	C359.689240,326.489075 359.509399,326.480072 359.329529,326.471100 
	C359.414856,326.564575 359.500183,326.658020 359.869110,326.498047 
z"/>
<path fill="#FBAD19" opacity="1.000000" stroke="none" 
	d="
M135.569489,166.113693 
	C136.564102,166.704819 137.245850,167.449326 137.829041,168.623093 
	C133.514679,173.400452 128.035950,174.289902 122.361908,175.511032 
	C112.403580,177.654236 102.702538,180.967117 92.830734,183.549225 
	C87.981140,184.817688 82.832680,185.064743 78.094955,186.615631 
	C66.661156,190.358459 55.500008,192.313202 43.873089,187.006546 
	C36.647190,183.708572 29.182827,181.025528 23.488836,175.187775 
	C20.836916,172.468903 18.265289,169.671692 15.657268,166.909988 
	C15.164840,166.993713 14.672413,167.077438 14.179985,167.161163 
	C15.090564,175.202240 16.024073,183.240814 16.905802,191.285065 
	C17.960749,200.909592 19.059256,210.530792 19.957113,220.170380 
	C20.305254,223.908081 23.634508,228.788986 27.062771,228.890594 
	C35.215824,229.132217 43.527397,229.919189 51.509560,228.719788 
	C65.168579,226.667374 78.677246,223.489746 92.147522,220.349152 
	C101.330673,218.208084 110.422958,216.568893 119.954681,216.793640 
	C124.719872,216.905975 130.006317,215.788116 134.235947,213.622803 
	C144.771378,208.229385 154.958176,202.114212 165.038208,195.889282 
	C170.039047,192.801025 174.586899,188.944366 179.172104,185.228546 
	C183.110519,182.036896 186.600449,178.266174 190.668427,175.266479 
	C195.979538,171.350082 201.663559,167.939194 207.191025,164.316772 
	C207.869278,163.872299 208.521118,163.311584 209.270798,163.064072 
	C215.247406,161.090851 218.708267,156.078598 220.830627,151.036453 
	C224.963913,141.216904 228.262238,130.977692 231.046692,120.679855 
	C233.340561,112.196419 234.674728,103.417343 235.913025,94.695290 
	C237.042831,86.737320 237.467163,78.679436 238.236282,70.668839 
	C238.260681,70.414589 238.658051,70.196152 238.881561,69.961029 
	C239.935379,69.971992 240.989197,69.982956 242.438171,69.996567 
	C242.594162,70.610542 242.198090,71.207268 242.139603,71.835426 
	C241.396713,79.814095 241.007935,87.839485 239.912857,95.767876 
	C238.729630,104.334343 237.090103,112.852119 235.289948,121.314621 
	C233.779465,128.415314 232.348846,135.630417 229.807861,142.390793 
	C226.328629,151.647461 221.125473,160.056946 212.866180,165.995926 
	C204.809174,171.789429 196.597534,177.368378 188.429153,183.005875 
	C187.395554,183.719223 186.212708,184.216339 184.274384,185.255890 
	C186.790649,188.621002 188.869568,192.005524 191.533554,194.840210 
	C197.376953,201.057953 203.095840,207.504105 209.633667,212.931793 
	C219.519974,221.139374 231.062271,226.628082 244.166443,223.783844 
	C257.179260,220.959457 269.826569,216.449173 282.626160,212.651306 
	C283.079193,212.516891 283.446869,212.094955 283.301819,212.197464 
	C283.144165,202.201553 277.358856,195.581467 272.188385,188.413437 
	C267.816254,182.352203 265.005981,175.186554 260.929352,168.881577 
	C258.538940,165.184555 254.422943,162.577606 252.160080,158.830032 
	C249.067398,153.708206 243.013306,154.610733 239.098297,151.239914 
	C237.370834,149.752579 234.232254,149.904144 231.260468,149.199265 
	C234.076218,143.507187 238.622818,146.253265 241.365601,147.464279 
	C250.256073,151.389709 258.280396,156.871704 263.674500,165.262131 
	C267.297760,170.897980 270.347839,176.899094 273.848694,182.617813 
	C276.719727,187.307755 280.393005,191.573456 282.762543,196.484665 
	C285.116577,201.363815 286.631500,206.743576 287.719299,212.066299 
	C287.971588,213.300629 285.278198,216.027695 283.458038,216.644135 
	C274.487854,219.682114 265.193237,221.804169 256.327515,225.096252 
	C248.038010,228.174377 239.627319,228.118744 231.113464,227.942947 
	C229.200592,227.903427 227.150681,227.482773 225.422455,226.680527 
	C215.718155,222.175720 206.439865,216.660782 198.606247,209.536194 
	C192.076721,203.597656 187.153885,195.892548 181.445618,188.879181 
	C176.080353,192.722473 170.435059,197.113495 164.445190,200.969193 
	C156.951630,205.792801 149.237976,210.286453 141.504700,214.722748 
	C131.425461,220.504868 120.406631,221.313766 109.018867,221.202194 
	C103.763084,221.150711 98.489822,223.283691 93.217964,224.395309 
	C79.678818,227.250107 66.232513,230.777206 52.560844,232.690109 
	C43.410957,233.970352 33.794113,233.880524 24.686872,232.466873 
	C21.348377,231.948654 16.776646,226.059937 16.402424,222.262833 
	C15.290254,210.978058 13.166047,199.941986 11.376622,188.793976 
	C9.945906,179.880692 11.087684,170.554474 11.087684,161.323242 
	C15.717773,160.796539 19.149164,160.694763 21.132092,166.206100 
	C22.319565,169.506546 25.990307,172.250381 29.102203,174.459259 
	C38.919018,181.427338 49.363033,187.312347 62.009125,185.882294 
	C67.603333,185.249680 73.052063,183.343430 78.571823,182.036469 
	C85.707863,180.346786 92.843048,178.652878 99.989243,177.007019 
	C108.888832,174.957336 117.856804,173.170090 126.673576,170.814148 
	C129.721939,169.999573 132.406082,167.822037 135.569489,166.113693 
z"/>
<path fill="#FBAD19" opacity="1.000000" stroke="none" 
	d="
M551.906921,359.004974 
	C539.764648,357.226074 528.061951,355.516418 516.382751,353.658752 
	C500.665894,351.158905 485.023041,348.096313 469.241943,346.129822 
	C457.784332,344.702087 446.157196,344.189362 434.600067,344.112854 
	C418.162384,344.004028 401.680725,344.095398 385.292542,345.204834 
	C374.202972,345.955566 363.242096,348.605438 352.223022,350.401947 
	C350.926147,350.613403 349.625519,350.969818 348.326080,350.972198 
	C328.166626,351.008820 308.006714,351.046173 287.848083,350.911530 
	C286.145966,350.900208 284.452057,349.663666 282.754333,348.996307 
	C282.940430,348.330933 283.126526,347.665558 283.312622,347.000183 
	C285.082947,347.000183 286.853241,347.000214 288.623566,347.000183 
	C303.951477,347.000122 319.294128,346.580231 334.603241,347.116577 
	C350.307037,347.666718 365.378693,343.983337 380.671173,341.666718 
	C382.456390,341.396240 384.254547,341.043610 386.048950,341.030243 
	C394.878693,340.964355 403.711548,341.129272 412.538757,340.965668 
	C422.484436,340.781342 432.423157,340.147491 442.368500,340.040253 
	C460.750092,339.842041 478.769470,342.802979 496.766083,346.289246 
	C510.619537,348.972870 524.639587,350.794861 538.583069,353.015686 
	C551.556946,355.082062 564.501038,357.357849 577.508606,359.182159 
	C586.467285,360.438629 595.502014,361.739899 604.519836,361.873627 
	C629.230835,362.240173 653.951111,361.955505 678.666931,362.079132 
	C680.839783,362.089996 683.007141,363.202606 685.177002,363.803497 
	C685.043396,364.445374 684.909790,365.087250 684.776184,365.729126 
	C683.053711,365.819336 681.331238,365.986938 679.608704,365.988098 
	C654.450928,366.005035 629.272156,366.615631 604.143616,365.758301 
	C590.083862,365.278595 576.105286,362.371460 562.094910,360.522247 
	C558.839050,360.092529 555.602417,359.516846 551.906921,359.004974 
z"/>
<path fill="#FBAD19" opacity="1.000000" stroke="none" 
	d="
M99.079010,154.061462 
	C86.628410,160.208908 74.416397,165.484467 60.312695,164.079086 
	C52.437134,163.294312 44.420444,163.797394 36.581909,162.810364 
	C30.376080,162.028931 26.699574,155.571716 29.205393,150.995544 
	C29.983528,149.574509 32.111893,148.892822 33.967896,148.434219 
	C30.599775,156.977997 33.204868,159.181885 40.228867,159.703568 
	C51.479671,160.539169 63.063599,161.339249 74.077141,159.533813 
	C83.141640,158.047867 92.164062,153.695389 100.072578,148.788147 
	C104.513306,146.032654 106.149506,139.429443 106.057350,133.391815 
	C106.038010,132.124847 107.079323,130.841675 107.631897,129.565979 
	C108.420097,130.757797 109.960007,132.005341 109.876465,133.132553 
	C109.259689,141.454468 108.697449,149.943497 99.079010,154.061462 
z"/>
<path fill="#FBAD19" opacity="1.000000" stroke="none" 
	d="
M449.000305,289.166656 
	C484.357086,289.125366 519.713867,289.084106 555.558960,289.563354 
	C556.105652,291.000336 556.164124,291.916840 556.222595,292.833313 
	C524.785034,292.888885 493.347534,292.943695 461.910004,293.000916 
	C457.917755,293.008179 453.925507,293.027863 449.467773,292.702515 
	C449.001617,291.297699 449.000946,290.232178 449.000305,289.166656 
z"/>
<path fill="#FBAD19" opacity="1.000000" stroke="none" 
	d="
M313.074036,146.092651 
	C314.306030,147.228546 315.804749,148.254837 315.865967,149.360703 
	C316.132080,154.167633 316.124268,159.005081 315.881256,163.814514 
	C315.817169,165.082489 314.541901,167.361115 313.847321,167.351776 
	C309.267853,167.290176 303.624908,168.248276 300.381592,165.961853 
	C295.982971,162.860947 297.410187,157.449463 302.630981,153.031097 
	C304.745605,151.241440 307.053711,150.074982 305.653259,146.684753 
	C305.566284,146.474289 307.795563,144.833923 309.046417,144.683380 
	C310.187225,144.546082 311.463013,145.529953 313.074036,146.092651 
M306.413513,163.997757 
	C307.752716,163.925323 309.091919,163.852890 309.993652,163.804108 
	C308.399231,161.499893 306.899689,159.332779 304.909180,156.456116 
	C303.854980,158.088120 302.205353,159.522003 302.315002,160.805588 
	C302.413116,161.953751 304.451111,162.936203 306.413513,163.997757 
z"/>
<path fill="#FBAD19" opacity="1.000000" stroke="none" 
	d="
M195.491791,230.719040 
	C197.656967,229.934753 200.075104,228.282867 201.140778,228.914139 
	C202.888260,229.949310 204.624130,232.379501 204.826736,234.377335 
	C205.339386,239.432480 204.996796,244.574371 204.996796,251.003555 
	C199.644943,248.824951 193.680786,248.186966 191.310074,244.931839 
	C188.908600,241.634476 190.060150,235.749405 189.655487,230.997772 
	C191.482758,230.957504 193.310013,230.917221 195.491791,230.719040 
z"/>
<path fill="#FBAD19" opacity="1.000000" stroke="none" 
	d="
M353.822235,221.204010 
	C351.402588,224.296158 349.353333,225.543930 346.693970,221.657181 
	C345.879028,220.466110 343.261505,220.133499 341.445923,220.068893 
	C334.709198,219.829178 332.434204,217.765839 333.098358,211.018524 
	C333.522644,206.708206 335.337708,202.767563 339.200073,199.237305 
	C340.132874,202.662903 340.807281,205.139542 341.524475,207.773376 
	C345.564362,207.773376 349.520813,207.773376 353.925934,207.773376 
	C353.925934,212.562164 353.925934,216.676514 353.822235,221.204010 
M337.225037,211.823532 
	C336.514099,217.969345 341.175140,215.532715 343.938446,215.849777 
	C344.513397,215.915741 345.492493,214.621552 345.798431,213.777710 
	C345.916473,213.452194 344.761414,212.273941 344.044098,212.111038 
	C342.002289,211.647430 339.887207,211.506439 337.225037,211.823532 
z"/>
<path fill="#FBAD19" opacity="1.000000" stroke="none" 
	d="
M272.491699,264.723114 
	C268.525757,266.681854 265.114746,266.353027 263.414398,262.528778 
	C261.783539,258.860779 263.718811,256.150726 266.983032,253.858749 
	C268.959564,252.470917 270.017242,249.826080 271.674805,247.907623 
	C272.354980,247.120407 273.522461,246.304535 274.477570,246.293320 
	C276.840271,246.265518 283.485229,254.381500 282.873871,256.672485 
	C282.539490,257.925507 280.983887,259.888336 280.164917,259.800385 
	C276.225922,259.377350 274.529724,261.838043 272.491699,264.723114 
z"/>
<path fill="#FBAD19" opacity="1.000000" stroke="none" 
	d="
M50.999985,131.858307 
	C50.391548,135.691498 49.900280,139.075119 49.070553,142.373627 
	C48.914639,142.993454 47.406265,143.578171 46.524742,143.574142 
	C46.119476,143.572327 45.336884,142.088425 45.377949,141.311035 
	C45.846336,132.444855 46.236832,123.564484 47.139774,114.738190 
	C47.376221,112.426933 49.176472,110.199570 50.569847,108.144783 
	C50.860382,107.716347 52.574062,108.078079 53.523487,108.397697 
	C53.752903,108.474930 53.818535,110.365730 53.506924,110.522400 
	C49.362419,112.606079 51.293892,116.372879 51.071255,119.411079 
	C50.780346,123.380913 51.000000,127.388153 50.999985,131.858307 
z"/>
<path fill="#FBAD19" opacity="1.000000" stroke="none" 
	d="
M79.744904,118.564621 
	C80.372078,126.143715 80.849266,133.292450 81.325066,140.420517 
	C78.868652,140.230637 76.458504,137.142776 76.044136,133.037003 
	C75.334900,126.009605 74.657249,118.975731 74.205528,111.929245 
	C74.139435,110.898087 75.390594,109.782478 76.032249,108.705940 
	C76.554749,108.787674 77.077248,108.869400 77.599747,108.951126 
	C78.264801,112.012161 78.929848,115.073204 79.744904,118.564621 
z"/>
<path fill="#FBAD19" opacity="1.000000" stroke="none" 
	d="
M398.460419,297.895203 
	C397.985657,296.855530 397.971741,295.877747 397.950287,294.533295 
	C402.617584,294.114716 407.292419,294.062775 412.478699,294.196411 
	C413.364990,294.268677 413.739899,294.155396 414.114838,294.042114 
	C415.153778,294.042450 416.192719,294.042816 417.774963,294.713989 
	C418.536346,296.197266 418.754425,297.009735 418.972473,297.822174 
	C412.288727,297.867126 405.605011,297.912079 398.460419,297.895203 
z"/>
<path fill="#FBAD19" opacity="1.000000" stroke="none" 
	d="
M445.583191,294.772644 
	C441.029816,294.862366 436.476440,294.952087 431.462677,294.702515 
	C431.001617,293.297699 431.000977,292.232178 431.000305,291.166656 
	C435.027466,291.125397 439.054657,291.084167 443.792419,291.711304 
	C444.863068,293.177338 445.223145,293.975006 445.583191,294.772644 
z"/>
<path fill="#FBAD19" opacity="1.000000" stroke="none" 
	d="
M557.952820,287.890839 
	C560.488708,287.350769 563.024658,286.810699 565.834961,286.817017 
	C566.078430,288.186707 566.047485,289.010010 566.016602,289.833313 
	C564.656372,289.892151 563.296204,289.950958 561.100098,290.249847 
	C559.984863,290.649933 559.705444,290.809967 559.426025,290.969971 
	C559.426025,290.969971 559.808228,291.264496 559.523865,291.009583 
	C558.810608,289.800049 558.381714,288.845459 557.952820,287.890839 
z"/>
<path fill="#FBAD19" opacity="1.000000" stroke="none" 
	d="
M420.000763,293.166656 
	C421.717346,293.125458 423.433960,293.084229 425.826782,293.711365 
	C426.863098,295.177338 427.223145,295.974976 427.583191,296.772644 
	C425.020233,297.033569 422.457275,297.294525 419.609497,297.104889 
	C419.550049,295.491760 419.775391,294.329224 420.000763,293.166656 
z"/>
<path fill="#FBAD19" opacity="1.000000" stroke="none" 
	d="
M445.873474,294.647705 
	C445.223145,293.975006 444.863068,293.177338 444.252197,291.773193 
	C445.442230,290.539185 446.883087,289.911682 448.662109,289.225403 
	C449.000946,290.232178 449.001617,291.297699 449.002747,292.762817 
	C448.056702,293.615875 447.110199,294.069336 445.873474,294.647705 
z"/>
<path fill="#FBAD19" opacity="1.000000" stroke="none" 
	d="
M427.873474,296.647736 
	C427.223145,295.974976 426.863098,295.177338 426.252197,293.773193 
	C427.442200,292.539154 428.883087,291.911682 430.662109,291.225403 
	C431.000977,292.232178 431.001617,293.297699 431.002747,294.762817 
	C430.056702,295.615906 429.110229,296.069366 427.873474,296.647736 
z"/>
<path fill="#FBAD19" opacity="1.000000" stroke="none" 
	d="
M557.685059,288.013062 
	C558.381714,288.845459 558.810608,289.800049 559.442871,291.236877 
	C558.719421,292.129822 557.792542,292.540558 556.544128,292.892303 
	C556.164124,291.916840 556.105652,291.000336 556.024048,289.625244 
	C556.473022,288.822845 556.945129,288.479034 557.685059,288.013062 
z"/>
<path fill="#FBAD19" opacity="1.000000" stroke="none" 
	d="
M566.369263,289.867676 
	C566.047485,289.010010 566.078430,288.186707 566.069702,287.117310 
	C568.416870,287.389343 568.642822,288.400696 566.369263,289.867676 
z"/>
<path fill="#FBAD19" opacity="1.000000" stroke="none" 
	d="
M419.713562,293.187378 
	C419.775391,294.329224 419.550049,295.491760 419.188354,297.237610 
	C419.052002,297.820923 418.995972,297.795288 418.984253,297.808716 
	C418.754425,297.009735 418.536346,296.197266 418.159790,294.775757 
	C418.476349,293.847137 418.951355,293.527588 419.713562,293.187378 
z"/>
<path fill="#8C1C40" opacity="1.000000" stroke="none" 
	d="
M244.341766,50.029579 
	C244.544128,49.870628 245.243683,49.749798 245.888275,49.886436 
	C245.501862,50.118496 245.170410,50.093094 244.341766,50.029579 
z"/>
<path fill="#8C1C40" opacity="1.000000" stroke="none" 
	d="
M413.807434,294.041931 
	C413.739899,294.155396 413.364990,294.268677 412.937683,294.212097 
	C413.090240,294.042084 413.295135,294.041931 413.807434,294.041931 
z"/>
<path fill="#8C1C40" opacity="1.000000" stroke="none" 
	d="
M398.040741,293.508911 
	C397.854156,293.281494 397.649933,292.729675 397.701233,292.032135 
	C397.978882,292.319122 398.000977,292.751770 398.040741,293.508911 
z"/>
<path fill="#FBAD19" opacity="1.000000" stroke="none" 
	d="
M559.670532,291.097839 
	C559.705444,290.809967 559.984863,290.649933 560.691406,290.264404 
	C560.717407,290.434509 560.316223,290.830109 559.670532,291.097839 
z"/>
<path fill="#8C1C40" opacity="1.000000" stroke="none" 
	d="
M418.930420,227.561401 
	C416.592499,235.774338 414.569794,243.678070 411.956726,251.381516 
	C407.085510,265.742249 401.123901,279.561615 392.538422,292.254700 
	C386.622375,301.001251 378.663666,307.165741 370.189545,312.894226 
	C364.547302,316.708344 358.098694,319.492584 352.962219,323.857208 
	C342.933655,332.378784 330.953827,336.080750 318.676331,338.850647 
	C310.384064,340.721436 301.755463,341.513977 293.238525,341.876282 
	C281.593628,342.371674 269.909973,342.131195 258.246399,341.964722 
	C245.741379,341.786224 233.208176,341.763428 220.748505,340.843536 
	C211.941895,340.193359 203.278183,337.784760 194.478073,336.830536 
	C178.673965,335.116821 164.722443,327.742554 150.257462,322.279114 
	C136.253632,316.989899 122.282837,310.963898 110.015518,301.950287 
	C108.178886,300.600769 106.396423,298.979004 105.101318,297.125183 
	C99.336113,288.872864 95.893990,279.799133 95.935570,269.569824 
	C95.982666,257.982819 95.946434,246.395447 95.946434,233.999908 
	C99.606155,233.999908 103.917946,234.441116 108.108498,233.915588 
	C119.781174,232.451797 131.405350,230.598862 143.040466,228.845139 
	C143.627213,228.756699 144.118317,228.124329 144.685211,227.799866 
	C151.150131,224.099869 156.235535,221.988083 160.387863,231.175964 
	C162.959183,236.865524 163.670273,243.385986 166.156845,249.126099 
	C169.430542,256.683258 172.335526,264.633301 179.166336,270.087708 
	C181.047668,271.589935 182.758591,273.343781 184.365540,275.144714 
	C190.872421,282.437042 199.310852,287.123535 207.597687,291.840332 
	C212.431244,294.591583 218.066269,295.927612 223.326035,297.938721 
	C233.649948,301.886230 244.438080,300.863586 255.131714,301.024872 
	C265.915436,301.187531 276.027924,298.721252 285.265656,293.238831 
	C291.293274,289.661560 297.395813,286.014221 302.749054,281.541626 
	C311.378113,274.332123 319.347382,266.338135 327.752014,258.851349 
	C329.918091,256.921814 332.473969,254.937592 335.183990,254.195755 
	C347.227631,250.898865 359.428558,248.179871 371.494171,244.958176 
	C375.892395,243.783752 380.072723,241.793472 385.029114,240.047058 
	C386.355286,239.318329 387.004791,238.717972 387.654266,238.117615 
	C387.943970,238.317535 388.233643,238.517456 389.087891,238.384308 
	C390.666931,237.461044 391.681396,236.870834 392.695892,236.280640 
	C393.678253,236.091278 394.660645,235.901947 395.825317,235.434631 
	C400.633545,232.311646 404.292206,228.867233 404.018494,222.810486 
	C403.905792,220.316925 403.651489,217.755142 404.061798,215.325775 
	C405.631927,206.029755 400.910706,198.674118 396.705017,191.262314 
	C392.697235,184.199280 388.785736,176.908752 383.625549,170.724884 
	C379.166779,165.381592 373.022766,161.441223 367.606354,156.901428 
	C363.244080,153.245178 359.016846,149.401855 354.446320,146.025162 
	C344.170868,138.433716 335.456696,129.044510 322.589294,124.586060 
	C311.757416,120.832901 301.141052,120.692444 290.367706,121.247307 
	C282.976898,121.627960 275.762177,124.721046 268.349884,125.603027 
	C261.836273,126.378067 255.157532,125.764999 247.117722,125.764999 
	C248.198959,120.992111 249.196289,116.848999 250.066879,112.679405 
	C251.101074,107.726189 252.374359,102.786491 252.896622,97.773483 
	C253.377335,93.159355 253.214035,88.444077 252.960114,83.793793 
	C252.172531,69.370987 251.206818,54.957905 250.229187,39.237736 
	C261.219177,40.063999 273.028870,40.754917 284.791809,41.918121 
	C290.808655,42.513107 296.816925,43.650177 302.690796,45.101719 
	C308.058838,46.428261 313.429810,48.086998 318.464600,50.345768 
	C328.579407,54.883583 338.685425,59.531815 348.386536,64.876045 
	C358.569672,70.485809 368.295166,76.930573 378.182678,83.071556 
	C388.351410,89.387238 396.060089,98.229919 402.896576,107.842972 
	C407.341553,114.093269 411.602051,120.511795 415.412567,127.160233 
	C417.236694,130.342850 417.838531,134.229736 418.967590,137.805969 
	C420.125824,141.474670 420.771698,145.401352 422.508942,148.767609 
	C424.883423,153.368530 425.183594,157.991455 425.088013,162.997971 
	C424.836884,176.152817 425.681824,189.364319 424.744354,202.456894 
	C424.183502,210.289185 421.088013,217.939316 419.146301,225.674957 
	C419.025970,226.154358 419.031982,226.665466 418.930420,227.561401 
z"/>
<path fill="#8C1C40" opacity="1.000000" stroke="none" 
	d="
M238.925568,69.496750 
	C238.658051,70.196152 238.260681,70.414589 238.236282,70.668839 
	C237.467163,78.679436 237.042831,86.737320 235.913025,94.695290 
	C234.674728,103.417343 233.340561,112.196419 231.046692,120.679855 
	C228.262238,130.977692 224.963913,141.216904 220.830627,151.036453 
	C218.708267,156.078598 215.247406,161.090851 209.270798,163.064072 
	C208.521118,163.311584 207.869278,163.872299 207.191025,164.316772 
	C201.663559,167.939194 195.979538,171.350082 190.668427,175.266479 
	C186.600449,178.266174 183.110519,182.036896 179.172104,185.228546 
	C174.586899,188.944366 170.039047,192.801025 165.038208,195.889282 
	C154.958176,202.114212 144.771378,208.229385 134.235947,213.622803 
	C130.006317,215.788116 124.719872,216.905975 119.954681,216.793640 
	C110.422958,216.568893 101.330673,218.208084 92.147522,220.349152 
	C78.677246,223.489746 65.168579,226.667374 51.509560,228.719788 
	C43.527397,229.919189 35.215824,229.132217 27.062771,228.890594 
	C23.634508,228.788986 20.305254,223.908081 19.957113,220.170380 
	C19.059256,210.530792 17.960749,200.909592 16.905802,191.285065 
	C16.024073,183.240814 15.090564,175.202240 14.179985,167.161163 
	C14.672413,167.077438 15.164840,166.993713 15.657268,166.909988 
	C18.265289,169.671692 20.836916,172.468903 23.488836,175.187775 
	C29.182827,181.025528 36.647190,183.708572 43.873089,187.006546 
	C55.500008,192.313202 66.661156,190.358459 78.094955,186.615631 
	C82.832680,185.064743 87.981140,184.817688 92.830734,183.549225 
	C102.702538,180.967117 112.403580,177.654236 122.361908,175.511032 
	C128.035950,174.289902 133.514679,173.400452 138.034943,168.942841 
	C141.223602,162.939301 143.917068,156.941299 147.054703,151.185410 
	C149.401566,146.880127 150.526108,142.505005 150.113342,137.633041 
	C150.045227,136.829025 150.778397,135.779297 151.424286,135.120697 
	C156.661423,129.780533 162.084198,124.616409 167.173889,119.141556 
	C168.590607,117.617630 169.697479,115.286560 169.873505,113.233765 
	C170.270508,108.604179 170.073074,103.915497 169.975174,99.253853 
	C169.876709,94.565536 166.911789,91.211685 162.518936,91.040154 
	C143.646530,90.303223 124.774742,89.400696 105.893814,89.074745 
	C86.412041,88.738411 66.917641,88.831772 47.433716,89.098328 
	C41.260902,89.182777 35.103966,90.427551 28.491158,91.193268 
	C27.455347,80.720329 27.106142,71.372833 35.156288,63.025272 
	C43.191124,54.693581 52.817726,48.794476 62.271519,42.631863 
	C66.300735,40.005352 71.621208,39.329346 76.397934,37.912064 
	C77.127419,37.695614 78.511749,37.979973 78.879578,38.519348 
	C81.967613,43.047646 84.848679,47.716488 87.891350,52.276764 
	C88.583488,53.314121 89.635872,54.842190 90.566010,54.874084 
	C98.039581,55.130379 104.367645,53.768574 110.813889,48.367882 
	C118.529808,41.903450 119.820953,34.742538 118.777657,25.778040 
	C128.208084,22.193562 137.518921,20.312002 147.402115,19.769009 
	C156.550934,19.266357 165.593033,16.825687 174.683563,15.246752 
	C175.334412,15.133708 175.995285,15.045041 176.654465,15.018163 
	C193.298325,14.339479 209.940857,13.621250 226.587845,13.029027 
	C231.818649,12.842939 237.061661,13.000000 241.000000,13.000000 
	C241.000000,18.430679 241.208069,24.465321 240.957031,30.480803 
	C240.420563,43.336620 239.646393,56.182518 238.925568,69.496750 
z"/>
<path fill="#8C1C40" opacity="1.000000" stroke="none" 
	d="
M113.040924,40.779926 
	C110.513504,43.124744 108.219612,45.248768 105.699532,47.057663 
	C97.753395,52.761341 94.546288,52.742653 88.795990,45.074604 
	C83.672997,38.243080 79.339668,30.746033 75.309387,23.194944 
	C72.742767,18.386181 75.405632,14.889544 80.908943,15.037951 
	C87.340164,15.211378 94.126045,14.500218 100.083290,16.348127 
	C105.467766,18.018368 111.393959,21.687519 114.321968,26.247133 
	C116.357162,29.416420 113.720467,35.585827 113.040924,40.779926 
z"/>
<path fill="#8C1C40" opacity="1.000000" stroke="none" 
	d="
M52.999580,43.833336 
	C48.003807,47.200661 43.008034,50.567986 37.490231,54.287174 
	C36.047108,43.614754 37.480972,34.107277 42.334644,24.345901 
	C46.104469,30.847916 49.419052,36.564751 52.877037,42.820614 
	C53.020439,43.359642 52.999580,43.833336 52.999580,43.833336 
z"/>
<path fill="#8C1C40" opacity="1.000000" stroke="none" 
	d="
M53.225883,43.825592 
	C52.999580,43.833336 53.020439,43.359642 53.031662,43.122826 
	C53.268013,43.074333 53.501595,43.254513 53.704021,43.464695 
	C53.722446,43.483818 53.540882,43.695557 53.225883,43.825592 
z"/>
<path fill="#FBAD19" opacity="1.000000" stroke="none" 
	d="
M392.353546,236.389893 
	C391.681396,236.870834 390.666931,237.461044 389.281464,238.139923 
	C389.944061,237.652100 390.977631,237.075607 392.353546,236.389893 
z"/>
<path fill="#FBAD19" opacity="1.000000" stroke="none" 
	d="
M387.377289,238.275787 
	C387.004791,238.717972 386.355286,239.318329 385.352936,239.876022 
	C385.700165,239.366882 386.400238,238.900421 387.377289,238.275787 
z"/>
<path fill="#8C1C40" opacity="1.000000" stroke="none" 
	d="
M359.727295,326.624756 
	C359.500183,326.658020 359.414856,326.564575 359.329529,326.471100 
	C359.509399,326.480072 359.689240,326.489075 359.727295,326.624756 
z"/>
<path fill="#8C1C40" opacity="1.000000" stroke="none" 
	d="
M306.023315,163.994766 
	C304.451111,162.936203 302.413116,161.953751 302.315002,160.805588 
	C302.205353,159.522003 303.854980,158.088120 304.909180,156.456116 
	C306.899689,159.332779 308.399231,161.499893 309.993652,163.804108 
	C309.091919,163.852890 307.752716,163.925323 306.023315,163.994766 
z"/>
<path fill="#8C1C40" opacity="1.000000" stroke="none" 
	d="
M337.513000,211.531006 
	C339.887207,211.506439 342.002289,211.647430 344.044098,212.111038 
	C344.761414,212.273941 345.916473,213.452194 345.798431,213.777710 
	C345.492493,214.621552 344.513397,215.915741 343.938446,215.849777 
	C341.175140,215.532715 336.514099,217.969345 337.513000,211.531006 
z"/>
</svg>