<svg version="1.1" id="Layer_1" xmlns="http://www.w3.org/2000/svg" xmlns:xlink="http://www.w3.org/1999/xlink" x="0px" y="0px"
	 width="100%" viewBox="0 0 192 192" enable-background="new 0 0 192 192" xml:space="preserve">
<path fill="#C3C3C2" opacity="1.000000" stroke="none" 
	d="
M36.000000,193.000000 
	C24.380358,193.000000 12.760714,193.000000 1.000000,193.000000 
	C1.000000,168.645935 1.000000,144.291626 1.402443,119.468552 
	C3.812477,118.126007 5.857857,117.327774 7.813331,116.349777 
	C8.966669,115.772957 9.919051,114.800636 11.062300,114.196274 
	C16.926182,111.096405 25.749613,113.170830 28.324196,104.296234 
	C28.400610,104.032845 28.784216,103.748657 29.075836,103.673813 
	C34.906235,102.177368 36.205864,97.107903 38.231197,92.474457 
	C38.614056,91.598587 40.545734,91.399727 41.762749,90.888474 
	C44.389977,98.065880 50.499557,93.991333 55.043255,94.910858 
	C55.802738,95.064552 56.916229,94.428360 57.595421,93.843033 
	C59.811974,91.932770 61.903275,89.877182 64.336983,87.920135 
	C65.092918,88.297882 65.554619,88.632965 66.012619,89.327408 
	C66.242256,90.605408 66.475594,91.524040 66.708931,92.442680 
	C66.961182,92.421959 67.213425,92.401237 67.465668,92.380524 
	C67.657127,91.531342 67.848587,90.682159 68.283394,89.902130 
	C68.912064,90.279594 69.297371,90.587906 69.743637,91.267319 
	C73.593422,98.346542 77.461823,105.024414 77.628845,113.145020 
	C76.604111,114.240410 75.871010,115.188660 75.115601,116.110077 
	C75.093292,116.083244 75.161156,116.066956 74.920517,116.207344 
	C74.529007,116.679573 74.378136,117.011414 74.232849,117.289688 
	C74.238434,117.236122 74.315475,117.311401 73.913437,117.240646 
	C72.727493,117.973465 71.943588,118.777046 71.014832,119.800529 
	C70.222252,120.589409 69.574516,121.158386 68.594299,121.850662 
	C65.518211,123.672302 62.774624,125.370644 59.677204,127.121826 
	C53.245186,130.785950 47.166996,134.397247 40.862129,138.247925 
	C39.772751,140.993546 38.281162,143.472137 38.169628,146.011353 
	C37.878166,152.646683 38.190315,159.308533 38.116508,166.358826 
	C37.645168,170.838074 37.319115,174.918304 36.917538,179.329529 
	C36.891323,180.107666 36.940636,180.554840 36.909763,181.382416 
	C36.968636,182.521500 37.107693,183.280167 37.208176,184.451294 
	C36.779736,187.575821 36.389866,190.287903 36.000000,193.000000 
z"/>
<path fill="#BDBCBA" opacity="1.000000" stroke="none" 
	d="
M159.000000,1.000000 
	C170.283020,1.000000 181.566025,1.000000 193.000000,1.000000 
	C193.000000,22.354015 193.000000,43.708351 192.577148,65.531372 
	C190.129654,66.902710 186.671738,67.461349 186.356628,68.774300 
	C185.506943,72.314438 184.057480,73.839149 180.440720,74.210876 
	C179.221954,74.336143 177.669113,76.353455 177.318649,77.766396 
	C177.122925,78.555473 178.988342,79.992897 180.107056,80.917931 
	C180.747528,81.447510 181.753006,81.535683 182.594147,81.822586 
	C182.526855,82.321869 182.459579,82.821159 182.392288,83.320442 
	C180.920090,83.198784 179.074310,83.598190 178.044357,82.859734 
	C174.681870,80.448975 171.726761,80.684738 168.445679,82.957176 
	C165.811249,84.781761 163.010345,84.656334 162.308426,81.048950 
	C161.454361,76.659683 158.571472,76.333244 155.047836,75.920105 
	C150.889557,75.432541 146.822601,74.206070 142.674881,73.567375 
	C141.163132,73.334587 139.482101,73.682426 137.967346,74.093544 
	C134.589828,75.010223 131.268417,76.133614 127.609070,77.270676 
	C127.116493,74.423645 126.782784,72.494888 126.449081,70.566132 
	C126.637444,71.017967 126.825806,71.469803 127.014168,71.921638 
	C125.002693,73.272530 122.991226,74.623413 120.968277,75.539452 
	C120.852310,74.236572 120.747826,73.368530 120.625000,72.093666 
	C120.881920,69.553619 121.398460,67.414246 121.344261,65.289436 
	C121.310349,63.959812 120.417084,62.652111 119.653671,61.079609 
	C119.285072,59.886631 119.172226,58.948616 119.366074,57.797279 
	C118.674995,54.235260 117.677223,50.886562 116.812691,47.238426 
	C117.235504,45.754032 117.525078,44.569077 117.694672,43.875080 
	C120.495316,44.647236 122.911888,45.596500 125.410042,45.924473 
	C128.027893,46.268166 130.811478,45.585716 133.369171,46.106068 
	C140.373581,47.531078 145.379501,45.300117 148.808044,39.024715 
	C149.335449,38.059395 150.974106,37.733349 152.037155,37.019737 
	C153.158386,36.267048 154.261215,35.467564 155.275497,34.578342 
	C159.189255,31.147114 159.117691,26.603039 159.139053,21.887217 
	C159.148376,19.825527 160.802429,17.814131 161.436554,15.698071 
	C161.895645,14.166087 162.643539,11.562396 161.991989,11.048923 
	C158.480865,8.281826 159.010254,4.621312 159.000000,1.000000 
z"/>
<path fill="#BBB9B9" opacity="1.000000" stroke="none" 
	d="
M1.000000,75.000000 
	C1.000000,50.422855 1.000000,25.845707 1.000000,1.000000 
	C16.353184,1.000000 31.707933,1.000000 47.531342,1.430195 
	C47.557449,3.849298 47.491405,7.369714 46.612991,7.585662 
	C39.359444,9.368870 40.148205,14.872438 39.873062,20.196396 
	C39.803661,21.539301 38.481842,23.444256 37.252926,23.976439 
	C34.234257,25.283676 31.556702,26.886665 32.460537,30.423588 
	C33.460304,34.335918 36.926918,33.956917 40.246880,33.799610 
	C48.343300,33.415989 56.501003,32.741337 64.539566,33.377510 
	C68.670631,33.704437 72.599480,36.586433 76.492584,38.658703 
	C74.215546,41.236954 72.065636,43.470303 69.635040,45.811844 
	C69.150002,46.238892 68.945633,46.557755 68.815529,46.862801 
	C68.889801,46.848984 68.836121,46.707748 68.548737,46.784523 
	C68.084259,47.200844 67.907173,47.540386 67.784401,47.845486 
	C67.838722,47.811043 67.747414,47.720425 67.456741,47.827621 
	C61.972843,51.174507 60.573334,56.525288 58.986748,61.951584 
	C56.648872,62.594734 54.581448,63.070595 52.736641,63.992119 
	C51.360355,64.679596 50.327080,66.731827 49.046062,66.821663 
	C40.857849,67.395866 33.535378,72.817757 24.951111,71.069458 
	C24.257980,70.928291 22.873714,71.324539 22.733473,71.764938 
	C21.272003,76.354385 17.497120,74.859238 14.444203,74.961327 
	C9.967377,75.111023 5.481831,74.999954 1.000000,75.000000 
z"/>
<path fill="#C2C1C1" opacity="1.000000" stroke="none" 
	d="
M120.979736,75.974289 
	C122.991226,74.623413 125.002693,73.272530 127.014168,71.921638 
	C126.825806,71.469803 126.637444,71.017967 126.449081,70.566132 
	C126.782784,72.494888 127.116493,74.423645 127.609070,77.270676 
	C131.268417,76.133614 134.589828,75.010223 137.967346,74.093544 
	C139.482101,73.682426 141.163132,73.334587 142.674881,73.567375 
	C146.822601,74.206070 150.889557,75.432541 155.047836,75.920105 
	C158.571472,76.333244 161.454361,76.659683 162.308426,81.048950 
	C163.010345,84.656334 165.811249,84.781761 168.445679,82.957176 
	C171.726761,80.684738 174.681870,80.448975 178.044357,82.859734 
	C179.074310,83.598190 180.920090,83.198784 182.392288,83.320442 
	C182.459579,82.821159 182.526855,82.321869 182.594147,81.822586 
	C181.753006,81.535683 180.747528,81.447510 180.107056,80.917931 
	C178.988342,79.992897 177.122925,78.555473 177.318649,77.766396 
	C177.669113,76.353455 179.221954,74.336143 180.440720,74.210876 
	C184.057480,73.839149 185.506943,72.314438 186.356628,68.774300 
	C186.671738,67.461349 190.129654,66.902710 192.577148,66.000031 
	C193.000000,86.020897 193.000000,106.041786 192.538635,126.531342 
	C188.764603,127.115723 183.562683,125.965683 182.482880,127.577385 
	C178.801712,133.071838 173.906021,130.469803 169.550323,130.794754 
	C168.473709,130.875092 167.233978,128.769272 166.069229,127.668388 
	C167.169403,126.779968 168.242523,125.855057 169.377304,125.013283 
	C170.533630,124.155540 172.742767,123.375702 172.739639,122.568558 
	C172.732559,120.746666 172.041718,117.730362 170.914993,117.357445 
	C168.520493,116.564957 165.378540,115.956367 164.583710,120.464989 
	C164.380280,121.618980 160.739960,122.484970 158.575211,122.825348 
	C157.655807,122.969910 155.439941,121.156174 155.561844,120.681252 
	C157.083435,114.753342 152.640182,115.686974 149.433807,114.940788 
	C147.906708,114.585396 145.399689,113.736534 145.273865,112.839478 
	C144.543304,107.630707 140.729752,107.432869 136.917191,107.004555 
	C135.197464,106.811363 133.473740,106.653885 131.751846,106.480202 
	C131.795410,106.096069 131.838989,105.711937 131.882553,105.327805 
	C134.660385,105.091507 137.438202,104.855202 140.216034,104.618904 
	C140.189041,104.121582 140.162048,103.624260 140.135056,103.126938 
	C135.949432,103.126938 131.760239,103.043121 127.582123,103.220261 
	C126.978149,103.245865 125.832451,105.023781 125.938698,105.150337 
	C128.747681,108.496681 125.791061,112.834053 127.688385,116.175232 
	C127.467255,116.112411 127.008110,116.088295 126.786331,115.831177 
	C122.390388,112.384796 118.216232,109.195526 113.702316,105.978378 
	C112.012878,104.408470 110.663208,102.866440 109.264267,100.910576 
	C109.820923,97.644669 110.426857,94.792595 111.344841,91.954346 
	C112.155609,91.346260 112.654327,90.724350 113.411186,89.848190 
	C113.793304,88.886719 113.917297,88.179504 114.051056,87.419235 
	C114.060822,87.366196 114.083305,87.260696 114.408386,87.127045 
	C116.815552,83.320358 118.897636,79.647316 120.979736,75.974289 
z"/>
<path fill="#B7B5B3" opacity="1.000000" stroke="none" 
	d="
M76.619713,38.313797 
	C72.599480,36.586433 68.670631,33.704437 64.539566,33.377510 
	C56.501003,32.741337 48.343300,33.415989 40.246880,33.799610 
	C36.926918,33.956917 33.460304,34.335918 32.460537,30.423588 
	C31.556702,26.886665 34.234257,25.283676 37.252926,23.976439 
	C38.481842,23.444256 39.803661,21.539301 39.873062,20.196396 
	C40.148205,14.872438 39.359444,9.368870 46.612991,7.585662 
	C47.491405,7.369714 47.557449,3.849298 48.000000,1.430195 
	C73.020897,1.000000 98.041786,1.000000 123.531357,1.417702 
	C124.825592,4.608351 125.328552,7.535953 126.563797,10.112494 
	C127.906822,12.913883 128.579025,15.255475 126.179466,17.798380 
	C124.793976,19.266636 123.874779,21.175875 122.484718,22.638603 
	C120.642418,24.577215 118.574615,26.307693 116.544472,28.058931 
	C115.573120,28.896835 114.263596,29.404787 113.452972,30.356625 
	C108.959595,35.632755 106.515724,35.082851 102.786018,29.265491 
	C101.429100,27.149061 97.787827,26.195675 94.995934,25.563768 
	C94.459282,25.442305 92.904251,29.250496 92.058105,31.342522 
	C91.712631,32.196655 92.003166,33.308033 91.814148,34.472191 
	C91.389313,35.079590 91.154686,35.517174 90.640320,35.981552 
	C89.962692,36.366245 89.564804,36.724136 88.789917,37.202579 
	C86.607132,37.561359 84.801353,37.799583 82.585678,37.984604 
	C80.323761,38.058868 78.471741,38.186333 76.619713,38.313797 
z"/>
<path fill="#BFBEBE" opacity="1.000000" stroke="none" 
	d="
M1.000000,75.468658 
	C5.481831,74.999954 9.967377,75.111023 14.444203,74.961327 
	C17.497120,74.859238 21.272003,76.354385 22.733473,71.764938 
	C22.873714,71.324539 24.257980,70.928291 24.951111,71.069458 
	C33.535378,72.817757 40.857849,67.395866 49.046062,66.821663 
	C50.327080,66.731827 51.360355,64.679596 52.736641,63.992119 
	C54.581448,63.070595 56.648872,62.594734 59.123032,62.365612 
	C59.988159,65.584366 60.350967,68.365028 60.740105,71.507179 
	C61.479355,73.592552 62.192268,75.316429 62.915741,77.436798 
	C63.008884,78.622147 63.091469,79.411003 62.999191,80.216507 
	C62.972347,80.297348 63.120365,80.361534 63.548187,80.526428 
	C64.195847,80.772385 64.563705,80.917633 64.898216,81.410210 
	C64.590828,83.797523 64.316795,85.837502 64.042755,87.877487 
	C61.903275,89.877182 59.811974,91.932770 57.595421,93.843033 
	C56.916229,94.428360 55.802738,95.064552 55.043255,94.910858 
	C50.499557,93.991333 44.389977,98.065880 41.762749,90.888474 
	C40.545734,91.399727 38.614056,91.598587 38.231197,92.474457 
	C36.205864,97.107903 34.906235,102.177368 29.075836,103.673813 
	C28.784216,103.748657 28.400610,104.032845 28.324196,104.296234 
	C25.749613,113.170830 16.926182,111.096405 11.062300,114.196274 
	C9.919051,114.800636 8.966669,115.772957 7.813331,116.349777 
	C5.857857,117.327774 3.812477,118.126007 1.402443,118.999893 
	C1.000000,104.645775 1.000000,90.291542 1.000000,75.468658 
z"/>
<path fill="#C5C5C5" opacity="1.000000" stroke="none" 
	d="
M127.909523,116.238060 
	C125.791061,112.834053 128.747681,108.496681 125.938698,105.150337 
	C125.832451,105.023781 126.978149,103.245865 127.582123,103.220261 
	C131.760239,103.043121 135.949432,103.126938 140.135056,103.126938 
	C140.162048,103.624260 140.189041,104.121582 140.216034,104.618904 
	C137.438202,104.855202 134.660385,105.091507 131.882553,105.327805 
	C131.838989,105.711937 131.795410,106.096069 131.751846,106.480202 
	C133.473740,106.653885 135.197464,106.811363 136.917191,107.004555 
	C140.729752,107.432869 144.543304,107.630707 145.273865,112.839478 
	C145.399689,113.736534 147.906708,114.585396 149.433807,114.940788 
	C152.640182,115.686974 157.083435,114.753342 155.561844,120.681252 
	C155.439941,121.156174 157.655807,122.969910 158.575211,122.825348 
	C160.739960,122.484970 164.380280,121.618980 164.583710,120.464989 
	C165.378540,115.956367 168.520493,116.564957 170.914993,117.357445 
	C172.041718,117.730362 172.732559,120.746666 172.739639,122.568558 
	C172.742767,123.375702 170.533630,124.155540 169.377304,125.013283 
	C168.242523,125.855057 167.169403,126.779968 166.069229,127.668388 
	C167.233978,128.769272 168.473709,130.875092 169.550323,130.794754 
	C173.906021,130.469803 178.801712,133.071838 182.482880,127.577385 
	C183.562683,125.965683 188.764603,127.115723 192.538635,127.000000 
	C193.000000,148.884216 193.000000,170.768448 193.000000,193.000000 
	C187.317856,193.000000 181.628632,193.000000 175.421097,192.615479 
	C174.535904,190.500381 174.169022,188.769821 173.911606,186.756653 
	C173.975052,185.635864 173.929031,184.797684 173.938324,183.526855 
	C174.033524,181.070694 174.073410,179.047134 174.332031,176.776001 
	C173.750015,173.675873 172.949249,170.823349 172.091553,167.566422 
	C170.615387,163.455307 169.196152,159.748611 167.845947,155.640869 
	C167.260895,151.250809 166.802368,147.216476 165.892166,143.286758 
	C165.136337,140.023560 163.848892,136.883499 162.647919,133.402924 
	C162.004059,132.733536 161.509232,132.350113 160.815216,131.655640 
	C149.713852,126.309097 138.811691,121.273582 127.909523,116.238060 
z"/>
<path fill="#B9B8B6" opacity="1.000000" stroke="none" 
	d="
M92.004356,34.302380 
	C92.003166,33.308033 91.712631,32.196655 92.058105,31.342522 
	C92.904251,29.250496 94.459282,25.442305 94.995934,25.563768 
	C97.787827,26.195675 101.429100,27.149061 102.786018,29.265491 
	C106.515724,35.082851 108.959595,35.632755 113.452972,30.356625 
	C114.263596,29.404787 115.573120,28.896835 116.544472,28.058931 
	C118.574615,26.307693 120.642418,24.577215 122.484718,22.638603 
	C123.874779,21.175875 124.793976,19.266636 126.179466,17.798380 
	C128.579025,15.255475 127.906822,12.913883 126.563797,10.112494 
	C125.328552,7.535953 124.825592,4.608351 124.000015,1.417702 
	C132.020905,1.000000 140.041809,1.000000 148.531357,1.428913 
	C149.184555,3.817798 149.369125,5.777771 149.581573,8.033729 
	C154.279251,6.693790 152.575439,3.413011 153.000000,1.000000 
	C154.714355,1.000000 156.428711,1.000000 158.571533,1.000000 
	C159.010254,4.621312 158.480865,8.281826 161.991989,11.048923 
	C162.643539,11.562396 161.895645,14.166087 161.436554,15.698071 
	C160.802429,17.814131 159.148376,19.825527 159.139053,21.887217 
	C159.117691,26.603039 159.189255,31.147114 155.275497,34.578342 
	C154.261215,35.467564 153.158386,36.267048 152.037155,37.019737 
	C150.974106,37.733349 149.335449,38.059395 148.808044,39.024715 
	C145.379501,45.300117 140.373581,47.531078 133.369171,46.106068 
	C130.811478,45.585716 128.027893,46.268166 125.410042,45.924473 
	C122.911888,45.596500 120.495316,44.647236 117.694672,43.875080 
	C117.525078,44.569077 117.235504,45.754032 116.558739,47.010349 
	C114.422226,45.791847 112.672905,44.501984 110.803589,43.068188 
	C110.683594,42.924255 110.339485,42.776104 110.235672,42.453651 
	C108.395836,41.171196 106.659828,40.211197 104.700218,39.090302 
	C104.123543,38.837765 103.770454,38.746117 103.279663,38.360718 
	C101.427795,37.133484 99.713646,36.199997 97.946404,34.911377 
	C96.849449,34.495678 95.805580,34.435108 94.416809,34.398994 
	C93.382721,34.383091 92.693542,34.342735 92.004356,34.302380 
z"/>
<path fill="#343436" opacity="1.000000" stroke="none" 
	d="
M161.014404,131.966675 
	C161.509232,132.350113 162.004059,132.733536 162.313614,133.527496 
	C161.660522,134.957855 161.089584,135.944336 160.747177,137.004623 
	C160.108887,138.981155 159.603500,141.000595 159.042801,143.002182 
	C158.661530,142.438217 158.280258,141.874252 157.898987,141.310287 
	C155.394455,140.815277 152.869019,139.866440 150.392517,139.980438 
	C148.662628,140.060089 146.363876,141.232208 147.850601,144.348282 
	C146.126907,152.783066 144.553223,160.882431 142.958359,169.386795 
	C142.637024,171.866684 142.336868,173.941559 141.665543,176.072601 
	C139.196243,181.752487 137.098129,187.376251 135.000000,193.000000 
	C126.312439,193.000000 117.624870,193.000000 108.624466,192.645630 
	C108.876846,187.868790 109.442078,183.446320 110.005699,178.766586 
	C110.003860,178.337799 110.003616,178.166275 110.042351,177.667648 
	C110.715546,176.226974 111.349762,175.113388 112.355972,173.986099 
	C113.442558,173.637375 114.612297,173.466949 114.802101,172.942123 
	C116.954170,166.991226 118.956306,160.986130 120.999298,154.997772 
	C121.000000,155.000000 120.994812,154.998886 121.331970,154.930588 
	C126.738518,146.390594 134.037628,141.077545 143.668991,138.685181 
	C146.829910,137.900009 149.680023,135.931000 152.755066,134.712234 
	C155.447891,133.644943 158.256775,132.870483 161.014404,131.966675 
z"/>
<path fill="#1F1F21" opacity="1.000000" stroke="none" 
	d="
M38.261803,165.959808 
	C38.190315,159.308533 37.878166,152.646683 38.169628,146.011353 
	C38.281162,143.472137 39.772751,140.993546 41.195782,138.331299 
	C43.573776,142.177414 45.244919,146.257050 47.295895,150.135818 
	C47.934536,151.343628 49.529827,152.545380 50.824024,152.716827 
	C51.584480,152.817566 53.255119,150.970749 53.405373,149.850861 
	C53.896767,146.188416 53.878624,142.457596 54.062149,138.633804 
	C51.076805,139.147385 48.881138,139.525116 45.824226,140.051025 
	C48.106747,134.368164 51.272430,132.719345 56.113804,134.185822 
	C56.438858,134.660156 56.691162,134.860947 56.996613,135.443176 
	C57.001690,138.260025 57.003738,140.632446 57.004890,143.467056 
	C57.007179,156.615494 57.010357,169.301743 57.008728,182.405396 
	C57.026493,185.556961 57.049065,188.291138 57.053947,191.354187 
	C57.024174,192.122025 57.012089,192.561020 57.000000,193.000000 
	C50.312355,193.000000 43.624710,193.000000 36.468533,193.000000 
	C36.389866,190.287903 36.779736,187.575821 37.508129,184.367615 
	C37.561085,182.915009 37.275517,181.958511 36.989948,181.002014 
	C36.940636,180.554840 36.891323,180.107666 37.281708,179.306915 
	C40.408443,176.812576 40.726566,169.163452 38.261803,165.959808 
M43.007557,162.958130 
	C43.609768,163.163300 44.211979,163.368454 44.814194,163.573608 
	C45.520741,161.055740 46.227287,158.537872 46.979515,155.857208 
	C45.365273,154.993118 44.021729,154.273941 41.637077,152.997452 
	C42.143642,156.766647 42.510120,159.493500 43.007557,162.958130 
z"/>
<path fill="#363739" opacity="1.000000" stroke="none" 
	d="
M173.883011,183.959488 
	C173.929031,184.797684 173.975052,185.635864 173.685989,186.876709 
	C172.900803,187.519379 172.450714,187.759384 171.990829,187.640167 
	C171.114639,185.649246 170.248230,184.017548 169.381821,182.385864 
	C168.844116,182.827560 168.306412,183.269272 167.768707,183.710983 
	C169.178940,185.140854 170.589157,186.570740 171.999847,188.372253 
	C172.333527,190.162582 172.666763,191.581299 173.000000,193.000000 
	C167.311966,193.000000 161.623917,193.000000 155.468048,192.555649 
	C155.056335,190.130249 154.727295,188.041397 155.245590,186.189713 
	C156.471771,181.808990 155.495667,178.598785 151.682205,175.914276 
	C150.400513,175.012039 148.961731,172.507355 149.365250,171.355103 
	C151.046356,166.554733 148.222916,164.287659 145.163452,161.682480 
	C145.505402,160.586731 145.738205,159.785751 146.359253,158.978592 
	C151.676331,156.444885 152.955032,160.442093 154.339386,163.524567 
	C156.110519,162.184464 157.554047,161.092239 159.047546,160.340637 
	C161.728897,164.453873 164.360245,168.226486 167.039368,172.316467 
	C169.352417,176.409042 171.617706,180.184265 173.883011,183.959488 
M162.967911,178.292358 
	C163.373566,177.700409 163.779236,177.108475 164.184906,176.516541 
	C163.409714,176.159210 162.634506,175.801880 161.859314,175.444550 
	C162.063019,176.263184 162.266724,177.081802 162.967911,178.292358 
z"/>
<path fill="#E4D8D9" opacity="1.000000" stroke="none" 
	d="
M79.000000,193.000000 
	C78.250000,193.000000 77.500000,193.000000 76.373260,192.580322 
	C76.637863,187.098129 77.279205,182.035614 78.197098,176.684906 
	C79.346519,170.266968 80.219406,164.137207 81.318954,157.750961 
	C81.895729,156.171600 82.245842,154.848724 82.610825,153.469650 
	C83.970886,154.080566 84.973022,154.530701 86.228989,155.240189 
	C87.020851,157.917847 88.149994,159.571991 91.001892,159.330414 
	C90.998947,160.108795 90.997818,160.553604 90.739380,161.256958 
	C88.083008,167.970352 88.324547,168.786545 93.118759,170.213257 
	C93.447662,170.674667 93.701172,170.866165 94.045746,171.289001 
	C94.366364,172.090591 94.644249,172.596848 94.930801,173.416092 
	C94.926262,174.145905 94.913048,174.562759 94.537460,174.995773 
	C90.989014,178.387024 87.802940,181.762115 83.860901,185.938004 
	C83.860901,179.688156 83.860901,174.225555 83.860901,168.762955 
	C78.245155,176.271881 80.905212,185.024078 79.000000,193.000000 
M84.716721,165.409424 
	C85.050125,165.006638 85.405731,164.617966 85.684097,164.180191 
	C85.713341,164.134201 85.287117,163.798599 85.072197,163.597366 
	C84.825539,164.072083 84.578888,164.546799 84.716721,165.409424 
z"/>
<path fill="#403E42" opacity="1.000000" stroke="none" 
	d="
M57.449055,193.000000 
	C57.012089,192.561020 57.024174,192.122025 57.353806,191.185516 
	C58.731030,189.689804 60.435505,188.859909 60.747002,187.666473 
	C62.970917,179.145935 64.910828,170.551285 66.956985,161.528595 
	C67.990456,153.728043 69.007988,146.379089 70.353958,139.062378 
	C71.500214,139.418045 72.318047,139.741455 73.197113,140.498764 
	C70.783691,152.826767 69.178520,164.819992 69.009308,177.408096 
	C68.944443,179.555603 69.018730,181.287766 68.981339,183.374542 
	C67.913109,186.819458 66.956551,189.909729 66.000000,193.000000 
	C63.299370,193.000000 60.598740,193.000000 57.449055,193.000000 
z"/>
<path fill="#2E2F31" opacity="1.000000" stroke="none" 
	d="
M145.054291,161.977264 
	C148.222916,164.287659 151.046356,166.554733 149.365250,171.355103 
	C148.961731,172.507355 150.400513,175.012039 151.682205,175.914276 
	C155.495667,178.598785 156.471771,181.808990 155.245590,186.189713 
	C154.727295,188.041397 155.056335,190.130249 155.000122,192.555649 
	C153.611115,193.000000 152.222214,193.000000 150.417297,192.580414 
	C148.911713,186.421509 147.906418,180.663452 146.638474,174.963837 
	C146.455902,174.143143 145.008865,173.603729 144.121643,172.537918 
	C144.113632,171.080627 144.130951,170.019531 144.382904,168.659622 
	C144.763092,166.232956 144.908691,164.105103 145.054291,161.977264 
z"/>
<path fill="#DFD4D3" opacity="1.000000" stroke="none" 
	d="
M79.444168,193.000000 
	C80.905212,185.024078 78.245155,176.271881 83.860901,168.762955 
	C83.860901,174.225555 83.860901,179.688156 83.860901,185.938004 
	C87.802940,181.762115 90.989014,178.387024 94.574364,175.255280 
	C94.992363,175.672134 95.011086,175.845673 95.029541,176.252258 
	C95.029266,176.485306 95.064857,176.950012 94.857346,177.219818 
	C94.433990,179.328033 94.218147,181.166458 93.620148,183.006149 
	C87.952255,184.336639 86.987465,188.363266 87.000000,193.000000 
	C84.629440,193.000000 82.258888,193.000000 79.444168,193.000000 
z"/>
<path fill="#3A3A3D" opacity="1.000000" stroke="none" 
	d="
M110.003372,177.994751 
	C110.003616,178.166275 110.003860,178.337799 109.848930,179.081207 
	C108.129181,184.102066 106.564590,188.551041 105.000000,193.000000 
	C102.957680,193.000000 100.915367,193.000000 98.365585,192.553284 
	C98.826019,185.406342 99.793915,178.706131 101.160706,172.013077 
	C103.081772,173.232956 104.560547,174.506195 106.140106,175.638885 
	C107.362434,176.515411 108.710953,177.215958 110.003372,177.994751 
z"/>
<path fill="#BCBAC5" opacity="1.000000" stroke="none" 
	d="
M100.761810,172.005920 
	C99.793915,178.706131 98.826019,185.406342 97.929062,192.553284 
	C96.611107,193.000000 95.222221,193.000000 93.415680,192.614243 
	C93.332787,189.153946 93.667549,186.079422 94.002304,183.004883 
	C94.218147,181.166458 94.433990,179.328033 94.985283,177.126862 
	C95.484848,176.439102 95.387871,176.190811 95.029808,176.019226 
	C95.011086,175.845673 94.992363,175.672134 94.936737,175.239105 
	C94.913048,174.562759 94.926262,174.145905 95.216949,173.279343 
	C97.253128,171.567337 99.011833,170.305069 100.804092,169.413910 
	C100.812363,170.525314 100.787086,171.265625 100.761810,172.005920 
M97.454567,176.490036 
	C97.454567,176.490036 97.517357,176.458618 97.454567,176.490036 
z"/>
<path fill="#D8D8E3" opacity="1.000000" stroke="none" 
	d="
M66.437500,193.000000 
	C66.956551,189.909729 67.913109,186.819458 69.321991,183.302429 
	C70.551346,180.928391 71.328377,178.981110 72.340607,176.784668 
	C73.372818,174.349960 74.169823,172.164413 74.987694,169.735748 
	C75.008560,169.492630 75.057137,169.007034 75.313675,169.000397 
	C75.741272,168.990341 75.912323,168.986893 76.071426,169.319824 
	C76.346626,170.464035 76.633781,171.271881 77.184586,172.099609 
	C77.624107,172.131180 77.799980,172.142853 77.925842,172.398865 
	C77.620674,173.049438 77.365524,173.455673 77.084793,173.856247 
	C77.059219,173.850601 77.025024,173.890274 76.922806,173.740723 
	C76.552315,173.729340 76.284027,173.867508 75.979103,174.408463 
	C74.961647,180.874176 73.980827,186.937088 73.000000,193.000000 
	C70.958336,193.000000 68.916664,193.000000 66.437500,193.000000 
z"/>
<path fill="#29282A" opacity="1.000000" stroke="none" 
	d="
M135.437500,193.000000 
	C137.098129,187.376251 139.196243,181.752487 141.671112,176.538391 
	C142.031906,182.298706 142.015945,187.649353 142.000000,193.000000 
	C139.958328,193.000000 137.916672,193.000000 135.437500,193.000000 
z"/>
<path fill="#202021" opacity="1.000000" stroke="none" 
	d="
M144.146988,172.934128 
	C145.008865,173.603729 146.455902,174.143143 146.638474,174.963837 
	C147.906418,180.663452 148.911713,186.421509 150.000626,192.580414 
	C148.611115,193.000000 147.222214,193.000000 145.416000,192.550873 
	C144.714783,185.712524 144.430893,179.323334 144.146988,172.934128 
z"/>
<path fill="#B9B4BD" opacity="1.000000" stroke="none" 
	d="
M73.375000,193.000000 
	C73.980827,186.937088 74.961647,180.874176 76.231964,174.384888 
	C76.689308,173.935760 76.857170,173.913025 77.025024,173.890274 
	C77.025024,173.890274 77.059219,173.850601 77.057678,174.200348 
	C77.344276,175.357773 77.632416,176.165451 77.920547,176.973114 
	C77.279205,182.035614 76.637863,187.098129 75.998260,192.580322 
	C75.250000,193.000000 74.500000,193.000000 73.375000,193.000000 
z"/>
<path fill="#D4C8C8" opacity="1.000000" stroke="none" 
	d="
M93.620148,183.006149 
	C93.667549,186.079422 93.332787,189.153946 92.999016,192.614243 
	C91.285645,193.000000 89.571281,193.000000 87.428467,193.000000 
	C86.987465,188.363266 87.952255,184.336639 93.620148,183.006149 
z"/>
<path fill="#070508" opacity="1.000000" stroke="none" 
	d="
M144.121643,172.537918 
	C144.430893,179.323334 144.714783,185.712524 144.999329,192.550873 
	C144.250000,193.000000 143.500000,193.000000 142.375000,193.000000 
	C142.015945,187.649353 142.031906,182.298706 142.042297,176.482254 
	C142.336868,173.941559 142.637024,171.866684 143.250702,169.384308 
	C143.758911,168.970673 143.953583,168.964554 144.148285,168.958450 
	C144.130951,170.019531 144.113632,171.080627 144.121643,172.537918 
z"/>
<path fill="#1B1C1E" opacity="1.000000" stroke="none" 
	d="
M105.375000,193.000000 
	C106.564590,188.551041 108.129181,184.102066 109.850533,179.338486 
	C109.442078,183.446320 108.876846,187.868790 108.155807,192.645630 
	C107.250000,193.000000 106.500000,193.000000 105.375000,193.000000 
z"/>
<path fill="#BDBCBA" opacity="1.000000" stroke="none" 
	d="
M152.600006,1.000000 
	C152.575439,3.413011 154.279251,6.693790 149.581573,8.033729 
	C149.369125,5.777771 149.184555,3.817798 149.000000,1.428913 
	C150.066666,1.000000 151.133347,1.000000 152.600006,1.000000 
z"/>
<path fill="#303133" opacity="1.000000" stroke="none" 
	d="
M172.000610,187.999390 
	C172.450714,187.759384 172.900803,187.519379 173.576523,187.159302 
	C174.169022,188.769821 174.535904,190.500381 174.951385,192.615479 
	C174.555557,193.000000 174.111099,193.000000 173.333328,193.000000 
	C172.666763,191.581299 172.333527,190.162582 172.000153,188.371948 
	C172.000000,188.000000 172.000610,187.999390 172.000610,187.999390 
z"/>
<path fill="#C3C0CC" opacity="1.000000" stroke="none" 
	d="
M76.083374,168.983459 
	C75.912323,168.986893 75.741272,168.990341 75.162918,169.084747 
	C74.694717,169.270737 74.560104,169.404175 74.586044,169.453903 
	C74.684898,169.643524 74.835533,169.806152 74.966827,169.978851 
	C74.169823,172.164413 73.372818,174.349960 71.968826,176.773254 
	C70.624054,177.004898 69.886253,176.998810 69.148460,176.992737 
	C69.178520,164.819992 70.783691,152.826767 73.332260,140.141785 
	C74.091827,136.660431 75.235390,133.991638 75.363945,131.274796 
	C75.601997,126.243675 75.246315,121.184441 75.137909,116.136917 
	C75.871010,115.188660 76.604111,114.240410 77.771095,113.354858 
	C78.455589,113.638817 78.706200,113.860062 79.102081,114.363144 
	C80.174248,116.267052 81.101143,117.889122 81.966431,119.934944 
	C81.066696,124.045967 79.429329,127.986465 84.927696,130.017136 
	C85.327354,130.890564 85.659782,131.434296 86.007248,132.371368 
	C85.880684,135.458405 85.694061,138.150864 85.619987,140.846405 
	C85.590988,141.901825 85.814453,142.964172 85.987854,144.372498 
	C86.058983,146.824081 86.065186,148.926529 86.055771,151.424347 
	C86.018478,152.873428 85.996819,153.927124 85.975159,154.980835 
	C84.973022,154.530701 83.970886,154.080566 82.610825,153.469650 
	C82.245842,154.848724 81.895729,156.171600 81.041382,157.988449 
	C79.052559,161.982788 77.567970,165.483124 76.083374,168.983459 
M77.242249,154.243378 
	C77.335854,155.590515 77.429459,156.937653 77.523056,158.284790 
	C78.098412,158.148605 78.673767,158.012421 79.249123,157.876236 
	C78.724487,156.497726 78.199860,155.119217 77.242249,154.243378 
M75.687172,163.448685 
	C75.309784,164.034836 74.932396,164.620987 74.555016,165.207138 
	C75.102852,165.328857 75.650688,165.450577 76.198524,165.572296 
	C76.226189,164.900238 76.253860,164.228180 75.687172,163.448685 
z"/>
<path fill="#9C6F62" opacity="1.000000" stroke="none" 
	d="
M78.956810,114.081314 
	C78.706200,113.860062 78.455589,113.638817 78.062729,113.207718 
	C77.461823,105.024414 73.593422,98.346542 70.119003,91.325745 
	C71.918373,92.315193 73.403343,93.617325 75.114021,95.129250 
	C75.861931,94.973511 76.384125,94.607971 76.906319,94.242432 
	C76.265343,93.485611 75.624367,92.728790 74.986282,91.733398 
	C74.989174,91.494835 74.995102,91.017700 75.414413,91.012772 
	C78.138748,91.121368 81.030136,90.230789 81.094841,94.091507 
	C81.051018,94.077293 81.061073,93.985703 80.775970,94.172577 
	C80.582626,95.573044 80.674377,96.786621 80.766129,98.000198 
	C81.300865,97.613899 81.835602,97.227592 82.687302,96.850067 
	C83.427299,96.907700 83.850357,96.956543 84.260880,97.323700 
	C84.506294,98.436943 84.764221,99.231873 85.005974,100.349220 
	C84.987190,101.101761 84.984589,101.531891 84.978165,102.298660 
	C84.969994,103.084145 84.965637,103.532990 84.622238,104.066223 
	C82.486282,108.207008 83.584244,109.355492 89.344254,109.093506 
	C90.456673,108.765396 91.238541,108.442574 92.388092,108.104683 
	C94.178871,107.780891 95.601982,107.472176 97.169655,107.361893 
	C97.562828,107.789459 97.850334,107.948219 98.020309,108.321823 
	C96.571121,109.735390 95.278358,110.863731 93.627441,112.038925 
	C92.184212,112.973259 90.947472,113.729736 90.044785,114.774765 
	C87.987679,117.156227 86.179245,119.075409 83.223480,115.665482 
	C82.351974,114.660057 80.408844,114.583534 78.956810,114.081314 
z"/>
<path fill="#202021" opacity="1.000000" stroke="none" 
	d="
M70.025520,139.030121 
	C69.007988,146.379089 67.990456,153.728043 66.630585,161.526978 
	C65.522591,161.649918 64.756912,161.322876 63.993378,160.529739 
	C63.665237,155.040878 63.334961,150.018112 63.004303,144.590546 
	C62.368446,140.228470 62.417892,135.823090 56.993587,134.998779 
	C56.691162,134.860947 56.438858,134.660156 56.255230,133.887878 
	C57.523743,132.114914 58.901970,130.946594 59.958389,129.537079 
	C60.361923,128.998672 60.028576,127.907990 60.031033,127.068985 
	C62.774624,125.370644 65.518211,123.672302 68.583984,122.213776 
	C66.486176,126.647034 67.249908,130.632629 69.414703,134.699448 
	C70.058411,135.908737 69.845779,137.573868 70.025520,139.030121 
z"/>
<path fill="#29282A" opacity="1.000000" stroke="none" 
	d="
M59.677204,127.121826 
	C60.028576,127.907990 60.361923,128.998672 59.958389,129.537079 
	C58.901970,130.946594 57.523743,132.114914 56.132359,133.677307 
	C51.272430,132.719345 48.106747,134.368164 45.824226,140.051025 
	C48.881138,139.525116 51.076805,139.147385 54.062149,138.633804 
	C53.878624,142.457596 53.896767,146.188416 53.405373,149.850861 
	C53.255119,150.970749 51.584480,152.817566 50.824024,152.716827 
	C49.529827,152.545380 47.934536,151.343628 47.295895,150.135818 
	C45.244919,146.257050 43.573776,142.177414 41.422455,138.091904 
	C47.166996,134.397247 53.245186,130.785950 59.677204,127.121826 
z"/>
<path fill="#2D2D2F" opacity="1.000000" stroke="none" 
	d="
M70.353958,139.062378 
	C69.845779,137.573868 70.058411,135.908737 69.414703,134.699448 
	C67.249908,130.632629 66.486176,126.647034 68.916481,122.090485 
	C69.574516,121.158386 70.222252,120.589409 71.321152,119.665741 
	C72.620026,118.644501 73.467751,117.977951 74.315475,117.311401 
	C74.315475,117.311401 74.238434,117.236122 74.488663,117.164925 
	C74.879639,116.751472 75.020401,116.409218 75.161163,116.066956 
	C75.161156,116.066956 75.093292,116.083244 75.115601,116.110077 
	C75.246315,121.184441 75.601997,126.243675 75.363945,131.274796 
	C75.235390,133.991638 74.091827,136.660431 73.271027,139.707886 
	C72.318047,139.741455 71.500214,139.418045 70.353958,139.062378 
z"/>
<path fill="#AB7C6F" opacity="1.000000" stroke="none" 
	d="
M74.888321,94.919456 
	C73.403343,93.617325 71.918373,92.315193 70.058044,90.954636 
	C69.297371,90.587906 68.912064,90.279594 68.097206,89.685394 
	C67.117218,89.255684 66.566772,89.111870 66.016327,88.968056 
	C65.554619,88.632965 65.092918,88.297882 64.336983,87.920135 
	C64.316795,85.837502 64.590828,83.797523 64.910782,81.073593 
	C65.044243,79.728584 65.131790,79.067528 65.436340,78.365746 
	C65.653336,78.325027 66.066978,78.170464 66.221603,78.208252 
	C66.376221,78.246040 66.674301,78.364159 66.700790,78.677917 
	C66.918442,79.725960 67.109612,80.460228 67.576324,82.252876 
	C68.602516,79.150764 69.290611,77.070709 70.301483,74.994446 
	C71.054482,75.000954 71.484718,75.003670 71.948090,75.224152 
	C71.981232,75.441902 72.044998,75.877808 71.996307,76.231827 
	C71.632675,77.728577 71.317734,78.871307 71.050331,80.363495 
	C71.133682,82.132973 71.098785,83.559135 71.221573,84.971588 
	C71.414917,87.195702 71.598106,89.552528 75.146355,88.192223 
	C75.243362,89.249413 75.119232,90.133553 74.995102,91.017700 
	C74.995102,91.017700 74.989174,91.494835 74.825844,91.932053 
	C74.737778,93.219337 74.813049,94.069397 74.888321,94.919456 
z"/>
<path fill="#363739" opacity="1.000000" stroke="none" 
	d="
M38.116508,166.358826 
	C40.726566,169.163452 40.408443,176.812576 37.357235,178.975952 
	C37.319115,174.918304 37.645168,170.838074 38.116508,166.358826 
z"/>
<path fill="#BFBEBE" opacity="1.000000" stroke="none" 
	d="
M66.012619,89.327408 
	C66.566772,89.111870 67.117218,89.255684 67.853851,89.616241 
	C67.848587,90.682159 67.657127,91.531342 67.465668,92.380524 
	C67.213425,92.401237 66.961182,92.421959 66.708931,92.442680 
	C66.475594,91.524040 66.242256,90.605408 66.012619,89.327408 
z"/>
<path fill="#363739" opacity="1.000000" stroke="none" 
	d="
M36.909763,181.382416 
	C37.275517,181.958511 37.561085,182.915009 37.546700,183.955170 
	C37.107693,183.280167 36.968636,182.521500 36.909763,181.382416 
z"/>
<path fill="#C3C0CC" opacity="1.000000" stroke="none" 
	d="
M73.913437,117.240646 
	C73.467751,117.977951 72.620026,118.644501 71.465988,119.445839 
	C71.943588,118.777046 72.727493,117.973465 73.913437,117.240646 
z"/>
<path fill="#C3C0CC" opacity="1.000000" stroke="none" 
	d="
M74.920517,116.207344 
	C75.020401,116.409218 74.879639,116.751472 74.483078,117.218491 
	C74.378136,117.011414 74.529007,116.679573 74.920517,116.207344 
z"/>
<path fill="#6C4F3D" opacity="1.000000" stroke="none" 
	d="
M110.923592,43.212120 
	C112.672905,44.501984 114.422226,45.791847 116.425499,47.309784 
	C117.677223,50.886562 118.674995,54.235260 118.991776,57.801414 
	C115.746681,59.382320 113.539055,62.180424 110.047989,59.752556 
	C109.935135,59.039036 109.882828,58.629913 109.704041,57.916672 
	C108.387123,57.135052 107.196678,56.657558 105.757385,56.132370 
	C105.343658,56.047871 105.178795,56.011074 105.008774,55.653660 
	C104.993423,54.905758 104.983246,54.478474 104.983246,53.682182 
	C105.628708,52.209297 106.264000,51.105423 107.057190,50.293686 
	C107.778343,51.268154 108.341591,51.950474 110.018173,53.981480 
	C110.402740,49.407356 110.663170,46.309738 110.923592,43.212120 
z"/>
<path fill="#462C1D" opacity="1.000000" stroke="none" 
	d="
M110.108521,60.056953 
	C113.539055,62.180424 115.746681,59.382320 118.685074,58.014736 
	C119.172226,58.948616 119.285072,59.886631 119.624435,61.422955 
	C117.797752,66.998863 115.609566,71.829132 109.043999,71.493584 
	C108.999512,69.698631 108.975800,68.315117 108.923943,66.548515 
	C108.854065,65.394196 108.812325,64.622978 109.091164,63.693611 
	C109.644005,62.375965 109.876266,61.216457 110.108521,60.056953 
z"/>
<path fill="#704B3C" opacity="1.000000" stroke="none" 
	d="
M109.064774,71.905029 
	C115.609566,71.829132 117.797752,66.998863 119.880173,61.677921 
	C120.417084,62.652111 121.310349,63.959812 121.344261,65.289436 
	C121.398460,67.414246 120.881920,69.553619 120.332298,72.246078 
	C118.678093,74.196251 117.298256,75.587166 115.712929,76.945251 
	C115.507446,76.912415 115.091660,76.881584 115.009926,76.775558 
	C114.834366,76.643402 114.740532,76.617271 114.646698,76.591141 
	C114.727341,76.756691 114.807983,76.922241 114.768967,77.280548 
	C114.452805,77.710526 114.215569,77.895523 113.626495,77.878586 
	C111.840698,76.231743 110.366020,74.734627 108.922234,72.948761 
	C108.960625,72.466545 108.968117,72.273079 108.998016,72.036034 
	C109.020424,71.992447 109.064774,71.905029 109.064774,71.905029 
z"/>
<path fill="#D4A395" opacity="1.000000" stroke="none" 
	d="
M115.918411,76.978081 
	C117.298256,75.587166 118.678093,74.196251 120.350632,72.652908 
	C120.747826,73.368530 120.852310,74.236572 120.968262,75.539444 
	C118.897636,79.647316 116.815552,83.320358 114.358360,86.777740 
	C113.656700,85.710449 113.330147,84.858826 113.001999,84.003784 
	C113.000404,84.000374 113.006828,84.002914 113.314621,83.951340 
	C114.061752,83.282005 114.501099,82.664238 114.957672,81.815735 
	C114.974899,81.584999 115.003510,81.123131 115.246529,80.849831 
	C115.632507,79.377045 115.775459,78.177567 115.918411,76.978081 
z"/>
<path fill="#563B2C" opacity="1.000000" stroke="none" 
	d="
M76.492584,38.658699 
	C78.471741,38.186333 80.323761,38.058868 82.602142,38.326797 
	C84.589699,40.083576 86.150902,41.444965 87.428787,42.559288 
	C84.416664,44.213448 81.312119,45.918354 78.374359,47.531670 
	C78.886299,48.248726 79.417961,48.993408 79.624939,49.871552 
	C77.607628,51.161987 75.915001,52.318970 73.942337,53.218521 
	C71.795563,52.660618 69.928810,52.360142 68.043457,51.627804 
	C67.932365,50.037437 67.839890,48.878929 67.747414,47.720425 
	C67.747414,47.720425 67.838722,47.811043 68.050705,47.737801 
	C68.453827,47.345619 68.644974,47.026684 68.836121,46.707748 
	C68.836121,46.707748 68.889801,46.848984 69.083649,46.747925 
	C69.490234,46.332466 69.702980,46.018059 69.915718,45.703651 
	C72.065636,43.470303 74.215546,41.236954 76.492584,38.658699 
z"/>
<path fill="#4C382A" opacity="1.000000" stroke="none" 
	d="
M67.456741,47.827621 
	C67.839890,48.878929 67.932365,50.037437 68.035843,51.609489 
	C68.046844,52.023033 68.056633,52.042683 67.710144,52.103386 
	C66.935936,53.154568 66.508202,54.145042 66.014893,55.502930 
	C65.623306,57.579441 65.297287,59.288548 64.696579,61.253792 
	C63.950672,63.510323 63.641521,65.568840 62.952171,67.491013 
	C62.480038,68.807503 61.478592,69.934166 60.713772,71.145691 
	C60.350967,68.365028 59.988159,65.584366 59.489067,62.389671 
	C60.573334,56.525288 61.972843,51.174507 67.456741,47.827621 
z"/>
<path fill="#4C382A" opacity="1.000000" stroke="none" 
	d="
M68.548737,46.784523 
	C68.644974,47.026684 68.453827,47.345619 67.996384,47.772240 
	C67.907173,47.540386 68.084259,47.200844 68.548737,46.784523 
z"/>
<path fill="#4C382A" opacity="1.000000" stroke="none" 
	d="
M69.635040,45.811844 
	C69.702980,46.018059 69.490234,46.332466 69.009369,46.761742 
	C68.945633,46.557755 69.150002,46.238892 69.635040,45.811844 
z"/>
<path fill="#37373A" opacity="1.000000" stroke="none" 
	d="
M101.160706,172.013077 
	C100.787086,171.265625 100.812363,170.525314 100.911987,169.057739 
	C101.259819,166.881042 101.533295,165.431625 101.880081,163.737366 
	C101.938423,163.322784 101.923447,163.153046 102.043518,162.603821 
	C104.395332,152.847198 106.651062,143.478867 108.768562,134.079407 
	C108.980057,133.140594 108.351295,132.012497 108.282455,130.656738 
	C110.315620,122.229568 112.178848,114.117912 114.042076,106.006256 
	C118.216232,109.195526 122.390388,112.384796 126.793930,116.191490 
	C127.509270,118.173126 127.995224,119.537331 128.480408,120.901810 
	C125.151794,124.226036 125.374107,129.394516 128.997910,133.395050 
	C127.810104,136.954391 126.630363,140.120941 125.437119,143.282394 
	C123.962212,147.190109 122.476089,151.093582 120.994812,154.998886 
	C120.994812,154.998886 121.000000,155.000000 120.737259,155.217651 
	C117.644341,161.623489 114.814156,167.811646 111.983978,173.999802 
	C111.349762,175.113388 110.715546,176.226974 110.042343,177.667664 
	C108.710953,177.215958 107.362434,176.515411 106.140106,175.638885 
	C104.560547,174.506195 103.081772,173.232956 101.160706,172.013077 
z"/>
<path fill="#2E2E2F" opacity="1.000000" stroke="none" 
	d="
M129.000000,133.000000 
	C125.374107,129.394516 125.151794,124.226036 128.480408,120.901810 
	C127.995224,119.537331 127.509270,118.173126 127.015709,116.448608 
	C127.008110,116.088295 127.467255,116.112411 127.688385,116.175232 
	C138.811691,121.273582 149.713852,126.309097 160.815216,131.655640 
	C158.256775,132.870483 155.447891,133.644943 152.755066,134.712234 
	C149.680023,135.931000 146.829910,137.900009 143.668991,138.685181 
	C134.037628,141.077545 126.738518,146.390594 121.331970,154.930588 
	C122.476089,151.093582 123.962212,147.190109 125.437119,143.282394 
	C126.630363,140.120941 127.810104,136.954391 129.172943,133.275330 
	C129.411179,132.495819 129.472290,132.231079 129.533386,131.966324 
	C129.355591,132.310883 129.177795,132.655441 129.000000,133.000000 
z"/>
<path fill="#EEF0F5" opacity="1.000000" stroke="none" 
	d="
M113.702316,105.978378 
	C112.178848,114.117912 110.315620,122.229568 107.975052,130.835175 
	C105.701622,134.909348 103.905548,138.489563 101.810944,141.904129 
	C99.998352,139.823746 98.484291,137.909027 96.934357,135.662964 
	C95.949577,133.875900 95.000656,132.420166 93.892410,130.623657 
	C93.520630,128.564682 93.308167,126.846489 93.336868,124.951118 
	C93.734146,124.204796 93.890259,123.635643 94.337662,122.896027 
	C97.483620,119.518608 100.338287,116.311653 103.512421,113.070183 
	C104.568687,112.054169 105.305489,111.072670 106.394699,109.983826 
	C107.602592,107.025780 108.458069,104.175095 109.313538,101.324402 
	C110.663208,102.866440 112.012878,104.408470 113.702316,105.978378 
z"/>
<path fill="#DAB49F" opacity="1.000000" stroke="none" 
	d="
M109.264267,100.910576 
	C108.458069,104.175095 107.602592,107.025780 106.324142,109.666016 
	C104.240700,108.929047 102.580246,108.402542 101.084671,107.574326 
	C101.816048,105.521469 102.382538,103.770325 103.244537,101.866631 
	C104.381027,100.495682 105.222015,99.277290 106.308838,97.842438 
	C107.035324,96.418793 107.515984,95.211594 108.246887,93.739677 
	C109.346878,91.040054 109.423195,89.039307 106.034134,88.663757 
	C106.385002,87.205650 106.691750,86.092308 106.997345,84.607956 
	C106.995735,83.495316 106.995277,82.753693 107.303856,82.057037 
	C108.412788,82.743263 109.212685,83.384506 109.897476,84.277985 
	C109.836784,85.536552 109.891182,86.542885 109.982452,87.842926 
	C110.248947,88.430527 110.478561,88.724426 110.772400,89.380722 
	C110.902008,90.475571 110.967400,91.208046 111.032791,91.940514 
	C110.426857,94.792595 109.820923,97.644669 109.264267,100.910576 
z"/>
<path fill="#E9B59B" opacity="1.000000" stroke="none" 
	d="
M109.945572,87.549217 
	C109.891182,86.542885 109.836784,85.536552 110.271034,84.269897 
	C111.507652,84.008781 112.255623,84.007996 113.003593,84.007202 
	C113.330147,84.858826 113.656700,85.710449 114.033279,86.911385 
	C114.083305,87.260696 114.060822,87.366196 113.643547,87.494492 
	C112.132706,87.598259 111.039139,87.573738 109.945572,87.549217 
z"/>
<path fill="#563B2C" opacity="1.000000" stroke="none" 
	d="
M111.344833,91.954346 
	C110.967400,91.208046 110.902008,90.475571 111.125824,89.396141 
	C111.994370,89.400261 112.573715,89.751343 113.153053,90.102432 
	C112.654327,90.724350 112.155609,91.346260 111.344833,91.954346 
z"/>
<path fill="#81604A" opacity="1.000000" stroke="none" 
	d="
M113.411186,89.848190 
	C112.573715,89.751343 111.994370,89.400261 111.061600,89.033752 
	C110.478561,88.724426 110.248947,88.430527 109.982452,87.842926 
	C111.039139,87.573738 112.132706,87.598259 113.633774,87.547531 
	C113.917297,88.179504 113.793304,88.886719 113.411186,89.848190 
z"/>
<path fill="#644B3D" opacity="1.000000" stroke="none" 
	d="
M79.949623,49.738091 
	C79.417961,48.993408 78.886299,48.248726 78.374359,47.531670 
	C81.312119,45.918354 84.416664,44.213448 87.428787,42.559288 
	C86.150902,41.444965 84.589699,40.083576 83.012024,38.379997 
	C84.801353,37.799583 86.607132,37.561359 89.039398,37.411591 
	C91.648048,40.227913 93.630226,42.955780 95.664490,45.755325 
	C96.586349,45.550873 97.808052,45.279915 99.308228,45.156338 
	C100.727180,46.536640 101.867661,47.769566 103.001091,49.342850 
	C102.645317,50.473282 102.296577,51.263348 101.717422,52.222672 
	C101.306824,52.927021 101.126663,53.462120 100.736145,53.994118 
	C100.525787,53.991020 100.105217,53.978718 99.815804,53.989964 
	C99.334351,54.021393 99.142319,54.041580 98.687851,53.834961 
	C97.071701,50.919876 95.021797,49.549377 91.537537,50.120037 
	C89.424736,49.701771 87.693840,49.334503 85.577927,48.953629 
	C83.445145,49.206047 81.697388,49.472069 79.949623,49.738091 
z"/>
<path fill="#563B2C" opacity="1.000000" stroke="none" 
	d="
M99.029755,45.008957 
	C97.808052,45.279915 96.586349,45.550873 95.664490,45.755325 
	C93.630226,42.955780 91.648048,40.227913 89.416389,37.291031 
	C89.564804,36.724136 89.962692,36.366245 90.992203,36.022621 
	C92.736115,35.806847 93.848404,35.576805 95.298286,35.310677 
	C96.080482,35.356041 96.525093,35.437500 97.060333,35.815323 
	C98.787491,37.111439 100.423996,38.111191 102.004723,39.428543 
	C101.609116,40.534298 101.269302,41.322453 100.657997,42.247910 
	C99.934258,43.259789 99.482002,44.134373 99.029755,45.008957 
z"/>
<path fill="#6C4F3D" opacity="1.000000" stroke="none" 
	d="
M94.960693,35.346764 
	C93.848404,35.576805 92.736115,35.806847 91.271942,35.995819 
	C91.154686,35.517174 91.389313,35.079590 91.814148,34.472191 
	C92.693542,34.342735 93.382721,34.383091 94.475281,34.639767 
	C94.878647,34.856087 94.960693,35.346764 94.960693,35.346764 
z"/>
<path fill="#624A3B" opacity="1.000000" stroke="none" 
	d="
M60.740105,71.507179 
	C61.478592,69.934166 62.480038,68.807503 62.952171,67.491013 
	C63.641521,65.568840 63.950672,63.510323 64.977478,61.297840 
	C66.001961,62.422020 66.470856,63.758286 66.900177,65.470467 
	C66.914703,68.250633 66.968803,70.654877 67.017899,73.425110 
	C67.011208,74.523148 67.009529,75.255188 66.770576,76.188736 
	C66.377853,76.983650 66.222420,77.577057 66.066978,78.170464 
	C66.066978,78.170464 65.653336,78.325027 65.231033,78.068321 
	C64.174217,77.554512 63.539703,77.297409 62.905182,77.040314 
	C62.192268,75.316429 61.479355,73.592552 60.740105,71.507179 
z"/>
<path fill="#705545" opacity="1.000000" stroke="none" 
	d="
M62.915745,77.436798 
	C63.539703,77.297409 64.174217,77.554512 65.014038,78.109039 
	C65.131790,79.067528 65.044243,79.728584 64.944130,80.726265 
	C64.563705,80.917633 64.195847,80.772385 63.539379,80.465744 
	C63.250767,80.304359 63.174049,80.199860 63.174049,80.199860 
	C63.091469,79.411003 63.008884,78.622147 62.915745,77.436798 
z"/>
<path fill="#AB7C6F" opacity="1.000000" stroke="none" 
	d="
M62.999191,80.216507 
	C63.174049,80.199860 63.250767,80.304359 63.259575,80.365036 
	C63.120365,80.361534 62.972347,80.297348 62.999191,80.216507 
z"/>
<path fill="#3B3B3C" opacity="1.000000" stroke="none" 
	d="
M148.000626,144.012863 
	C146.363876,141.232208 148.662628,140.060089 150.392517,139.980438 
	C152.869019,139.866440 155.394455,140.815277 157.898987,141.310287 
	C158.280258,141.874252 158.661530,142.438217 159.042801,143.002182 
	C159.603500,141.000595 160.108887,138.981155 160.747177,137.004623 
	C161.089584,135.944336 161.660522,134.957855 162.462646,133.813477 
	C163.848892,136.883499 165.136337,140.023560 165.892166,143.286758 
	C166.802368,147.216476 167.260895,151.250809 167.520905,155.585907 
	C166.086487,155.593903 165.046158,155.255829 163.998749,154.558136 
	C161.187210,148.077866 157.762314,147.123993 152.485291,150.608292 
	C151.363510,151.348969 149.459229,150.904541 147.931335,150.620804 
	C147.965012,148.161285 147.982819,146.087082 148.000626,144.012863 
z"/>
<path fill="#202021" opacity="1.000000" stroke="none" 
	d="
M164.005814,154.917755 
	C165.046158,155.255829 166.086487,155.593903 167.451874,155.986938 
	C169.196152,159.748611 170.615387,163.455307 171.735016,167.579163 
	C170.959717,167.991318 170.484039,167.986328 170.005493,167.991501 
	C170.002625,168.001678 170.019516,167.995071 169.974701,167.642609 
	C167.931870,163.539093 165.933868,159.788025 163.954300,155.757217 
	C163.983765,155.290909 163.994781,155.104324 164.005814,154.917755 
z"/>
<path fill="#1B1C1E" opacity="1.000000" stroke="none" 
	d="
M173.938324,183.526855 
	C171.617706,180.184265 169.352417,176.409042 167.441223,172.317642 
	C168.866669,171.998581 169.938004,171.995697 171.184998,172.198334 
	C172.278183,173.943771 173.195740,175.483688 174.113281,177.023590 
	C174.073410,179.047134 174.033524,181.070694 173.938324,183.526855 
z"/>
<path fill="#3B3B3C" opacity="1.000000" stroke="none" 
	d="
M174.332031,176.776001 
	C173.195740,175.483688 172.278183,173.943771 171.142944,171.854462 
	C170.619644,170.197159 170.313995,169.089233 170.008362,167.981323 
	C170.484039,167.986328 170.959717,167.991318 171.791946,167.983566 
	C172.949249,170.823349 173.750015,173.675873 174.332031,176.776001 
z"/>
<path fill="#4C2C18" opacity="1.000000" stroke="none" 
	d="
M100.929482,42.110611 
	C101.269302,41.322453 101.609116,40.534298 102.352203,39.339348 
	C102.976097,38.839863 103.196732,38.747166 103.417374,38.654469 
	C103.770454,38.746117 104.123543,38.837765 104.776443,39.412437 
	C106.830673,40.855675 108.585083,41.815891 110.339485,42.776104 
	C110.339485,42.776104 110.683594,42.924255 110.803589,43.068188 
	C110.663170,46.309738 110.402740,49.407356 110.018173,53.981480 
	C108.341591,51.950474 107.778343,51.268154 106.964325,50.026329 
	C106.168480,48.961319 105.623390,48.455807 105.024597,47.615540 
	C103.623756,45.557396 102.276619,43.834003 100.929482,42.110611 
z"/>
<path fill="#6C4F3D" opacity="1.000000" stroke="none" 
	d="
M103.279663,38.360718 
	C103.196732,38.747166 102.976097,38.839863 102.407990,39.021751 
	C100.423996,38.111191 98.787491,37.111439 97.322433,35.771046 
	C97.662430,35.375771 97.830963,35.321136 97.999489,35.266510 
	C99.713646,36.199997 101.427795,37.133484 103.279663,38.360718 
z"/>
<path fill="#6C4F3D" opacity="1.000000" stroke="none" 
	d="
M110.235672,42.453651 
	C108.585083,41.815891 106.830673,40.855675 105.000046,39.573326 
	C106.659828,40.211197 108.395836,41.171196 110.235672,42.453651 
z"/>
<path fill="#B7B5B3" opacity="1.000000" stroke="none" 
	d="
M97.946404,34.911377 
	C97.830963,35.321136 97.662430,35.375771 97.231796,35.474678 
	C96.525093,35.437500 96.080482,35.356041 95.298286,35.310677 
	C94.960693,35.346764 94.878647,34.856087 94.820175,34.615314 
	C95.805580,34.435108 96.849449,34.495678 97.946404,34.911377 
z"/>
<path fill="#1B1A1D" opacity="1.000000" stroke="none" 
	d="
M147.850601,144.348282 
	C147.982819,146.087082 147.965012,148.161285 147.666504,150.870255 
	C146.914200,153.998260 146.442596,156.491531 145.971008,158.984787 
	C145.738205,159.785751 145.505402,160.586731 145.163452,161.682480 
	C144.908691,164.105103 144.763092,166.232956 144.382889,168.659622 
	C143.953583,168.964554 143.758911,168.970673 143.271881,168.979309 
	C144.553223,160.882431 146.126907,152.783066 147.850601,144.348282 
z"/>
<path fill="#2E2E2F" opacity="1.000000" stroke="none" 
	d="
M112.355972,173.986099 
	C114.814156,167.811646 117.644341,161.623489 120.736557,155.215424 
	C118.956306,160.986130 116.954170,166.991226 114.802101,172.942123 
	C114.612297,173.466949 113.442558,173.637375 112.355972,173.986099 
z"/>
<path fill="#2E2E30" opacity="1.000000" stroke="none" 
	d="
M63.004688,144.995361 
	C63.334961,150.018112 63.665237,155.040878 63.622139,160.641998 
	C62.168484,166.622177 61.242180,172.062195 59.916840,177.403214 
	C59.503471,179.069046 58.011665,180.467270 57.013535,181.988007 
	C57.010357,169.301743 57.007179,156.615494 57.366798,143.474106 
	C59.487961,143.677780 61.246323,144.336578 63.004688,144.995361 
z"/>
<path fill="#272729" opacity="1.000000" stroke="none" 
	d="
M57.008728,182.405396 
	C58.011665,180.467270 59.503471,179.069046 59.916840,177.403214 
	C61.242180,172.062195 62.168484,166.622177 63.620007,161.108093 
	C64.756912,161.322876 65.522591,161.649918 66.614655,161.978577 
	C64.910828,170.551285 62.970917,179.145935 60.747002,187.666473 
	C60.435505,188.859909 58.731030,189.689804 57.371490,190.856644 
	C57.049065,188.291138 57.026493,185.556961 57.008728,182.405396 
z"/>
<path fill="#272729" opacity="1.000000" stroke="none" 
	d="
M63.004303,144.590546 
	C61.246323,144.336578 59.487961,143.677780 57.367691,143.011932 
	C57.003738,140.632446 57.001690,138.260025 56.996613,135.443176 
	C62.417892,135.823090 62.368446,140.228470 63.004303,144.590546 
z"/>
<path fill="#18181A" opacity="1.000000" stroke="none" 
	d="
M42.942078,162.589233 
	C42.510120,159.493500 42.143642,156.766647 41.637077,152.997452 
	C44.021729,154.273941 45.365273,154.993118 46.979515,155.857208 
	C46.227287,158.537872 45.520741,161.055740 44.814194,163.573608 
	C44.211979,163.368454 43.609768,163.163300 42.942078,162.589233 
z"/>
<path fill="#2E2F31" opacity="1.000000" stroke="none" 
	d="
M146.359253,158.978592 
	C146.442596,156.491531 146.914200,153.998260 147.650635,151.255554 
	C149.459229,150.904541 151.363510,151.348969 152.485291,150.608292 
	C157.762314,147.123993 161.187210,148.077866 163.998749,154.558136 
	C163.994781,155.104324 163.983765,155.290909 163.627594,155.673798 
	C162.012939,154.601730 160.913055,153.044327 159.415115,152.165192 
	C158.394028,151.565933 156.816452,151.914856 155.487701,151.839828 
	C155.971664,153.040375 156.326965,154.315659 156.970474,155.423553 
	C157.884399,156.997070 159.010376,158.447418 159.783768,159.964203 
	C159.347046,159.985336 159.172302,159.992661 158.997559,160.000000 
	C157.554047,161.092239 156.110519,162.184464 154.339386,163.524567 
	C152.955032,160.442093 151.676331,156.444885 146.359253,158.978592 
z"/>
<path fill="#272729" opacity="1.000000" stroke="none" 
	d="
M159.047546,160.340622 
	C159.172302,159.992661 159.347046,159.985336 160.145142,159.982117 
	C162.000168,160.904892 163.300552,161.745743 164.448029,162.759705 
	C166.356827,164.446381 168.167511,166.244110 170.019516,167.995071 
	C170.019516,167.995071 170.002625,168.001678 170.005493,167.991501 
	C170.313995,169.089233 170.619644,170.197159 170.967316,171.648926 
	C169.938004,171.995697 168.866669,171.998581 167.393463,172.000290 
	C164.360245,168.226486 161.728897,164.453873 159.047546,160.340622 
z"/>
<path fill="#303133" opacity="1.000000" stroke="none" 
	d="
M171.999695,188.000305 
	C170.589157,186.570740 169.178940,185.140854 167.768707,183.710983 
	C168.306412,183.269272 168.844116,182.827560 169.381821,182.385864 
	C170.248230,184.017548 171.114639,185.649246 171.990829,187.640167 
	C172.000610,187.999390 172.000000,188.000000 171.999695,188.000305 
z"/>
<path fill="#303133" opacity="1.000000" stroke="none" 
	d="
M162.719177,178.096405 
	C162.266724,177.081802 162.063019,176.263184 161.859314,175.444550 
	C162.634506,175.801880 163.409714,176.159210 164.184906,176.516541 
	C163.779236,177.108475 163.373566,177.700409 162.719177,178.096405 
z"/>
<path fill="#EBE3E8" opacity="1.000000" stroke="none" 
	d="
M96.970230,135.994293 
	C98.484291,137.909027 99.998352,139.823746 101.787064,142.224991 
	C102.034943,143.141083 102.008163,143.570663 101.664124,144.008698 
	C100.756035,144.373657 100.165207,144.730148 99.574379,145.086655 
	C100.058342,145.399094 100.542305,145.711533 101.061943,146.385773 
	C101.171440,147.226410 101.245262,147.705246 101.228188,148.553162 
	C100.479591,151.318390 99.821884,153.714523 98.907822,155.883179 
	C98.289841,154.455109 97.928207,153.254547 97.550217,151.999680 
	C92.942963,155.965073 96.886238,160.807358 95.691956,165.292511 
	C94.934074,167.322281 94.468536,169.157990 94.002998,170.993683 
	C93.701172,170.866165 93.447662,170.674667 93.120491,169.801758 
	C92.331230,166.455688 91.663956,163.727036 90.996689,160.998398 
	C90.997818,160.553604 90.998947,160.108795 91.156090,158.988907 
	C94.713127,153.183792 91.285820,148.685104 89.988258,143.605194 
	C89.961105,142.450027 89.933418,141.679260 89.917496,140.522705 
	C90.020462,139.113037 90.111671,138.089142 90.542191,137.108093 
	C92.251762,137.436737 93.622017,137.722565 95.037781,138.271027 
	C95.370132,138.833939 95.656982,139.134201 95.943832,139.434464 
	C96.106232,139.243027 96.268631,139.051605 96.431030,138.860168 
	C95.956764,138.570923 95.482491,138.281677 95.007278,137.661072 
	C95.005241,136.887970 95.004143,136.446213 95.331024,135.994751 
	C96.096069,135.988129 96.533150,135.991211 96.970230,135.994293 
z"/>
<path fill="#EBE1E1" opacity="1.000000" stroke="none" 
	d="
M89.987717,143.989563 
	C91.285820,148.685104 94.713127,153.183792 91.157913,158.655304 
	C88.149994,159.571991 87.020851,157.917847 86.228989,155.240189 
	C85.996819,153.927124 86.018478,152.873428 86.435623,151.393311 
	C87.883316,148.641113 88.935516,146.315338 89.987717,143.989563 
z"/>
<path fill="#A9A7B2" opacity="1.000000" stroke="none" 
	d="
M94.045746,171.289001 
	C94.468536,169.157990 94.934074,167.322281 95.762177,165.592133 
	C96.732529,165.559341 97.746552,165.582611 97.877144,165.254395 
	C98.415695,163.900879 98.686249,162.440735 99.354790,161.016388 
	C100.052055,161.029984 100.449837,161.046982 100.852814,161.395325 
	C100.853271,162.168457 100.848534,162.610245 100.748856,163.203613 
	C101.038208,163.564194 101.422485,163.773209 101.806763,163.982224 
	C101.533295,165.431625 101.259819,166.881042 100.878448,168.686615 
	C99.011833,170.305069 97.253128,171.567337 95.208267,172.966370 
	C94.644249,172.596848 94.366364,172.090591 94.045746,171.289001 
z"/>
<path fill="#BFBCC7" opacity="1.000000" stroke="none" 
	d="
M76.071426,169.319824 
	C77.567970,165.483124 79.052559,161.982788 80.814720,158.244949 
	C80.219406,164.137207 79.346519,170.266968 78.197098,176.684906 
	C77.632416,176.165451 77.344276,175.357773 77.083252,174.205994 
	C77.365524,173.455673 77.620674,173.049438 77.843857,172.225342 
	C77.514915,171.898239 77.217926,171.988983 76.920937,172.079712 
	C76.633781,171.271881 76.346626,170.464035 76.071426,169.319824 
z"/>
<path fill="#EBE1E1" opacity="1.000000" stroke="none" 
	d="
M90.739372,161.256958 
	C91.663956,163.727036 92.331230,166.455688 92.996780,169.595825 
	C88.324547,168.786545 88.083008,167.970352 90.739372,161.256958 
z"/>
<path fill="#DFD4D3" opacity="1.000000" stroke="none" 
	d="
M84.524475,165.215469 
	C84.578888,164.546799 84.825539,164.072083 85.072205,163.597366 
	C85.287117,163.798599 85.713341,164.134201 85.684097,164.180191 
	C85.405731,164.617966 85.050125,165.006638 84.524475,165.215469 
z"/>
<path fill="#BFBCC7" opacity="1.000000" stroke="none" 
	d="
M69.009308,177.408096 
	C69.886253,176.998810 70.624054,177.004898 71.733627,177.022400 
	C71.328377,178.981110 70.551346,180.928391 69.433670,182.947784 
	C69.018730,181.287766 68.944443,179.555603 69.009308,177.408096 
z"/>
<path fill="#B7B5B3" opacity="1.000000" stroke="none" 
	d="
M95.029541,176.252258 
	C95.387871,176.190811 95.484848,176.439102 95.192795,176.857056 
	C95.064857,176.950012 95.029266,176.485306 95.029541,176.252258 
z"/>
<path fill="#A9A7B2" opacity="1.000000" stroke="none" 
	d="
M97.485962,176.474335 
	C97.517357,176.458618 97.454567,176.490036 97.485962,176.474335 
z"/>
<path fill="#BFBCC7" opacity="1.000000" stroke="none" 
	d="
M76.922806,173.740723 
	C76.857170,173.913025 76.689308,173.935760 76.268600,173.982086 
	C76.284027,173.867508 76.552315,173.729340 76.922806,173.740723 
z"/>
<path fill="#B9B4BD" opacity="1.000000" stroke="none" 
	d="
M77.184586,172.099609 
	C77.217926,171.988983 77.514915,171.898239 77.893875,171.981003 
	C77.799980,172.142853 77.624107,172.131180 77.184586,172.099609 
z"/>
<path fill="#BFBCC7" opacity="1.000000" stroke="none" 
	d="
M74.987694,169.735748 
	C74.835533,169.806152 74.684898,169.643524 74.586044,169.453903 
	C74.560104,169.404175 74.694717,169.270737 74.906372,169.091385 
	C75.057137,169.007034 75.008560,169.492630 74.987694,169.735748 
z"/>
<path fill="#BD9587" opacity="1.000000" stroke="none" 
	d="
M94.046371,123.066498 
	C93.890259,123.635643 93.734146,124.204796 92.980667,124.950195 
	C91.246544,125.419418 90.109779,125.712379 88.884689,125.679214 
	C86.540253,123.405792 84.284142,121.458488 82.028038,119.511192 
	C81.101143,117.889122 80.174248,116.267052 79.102081,114.363144 
	C80.408844,114.583534 82.351974,114.660057 83.223480,115.665482 
	C86.179245,119.075409 87.987679,117.156227 90.044785,114.774765 
	C90.947472,113.729736 92.184212,112.973259 93.766205,112.250923 
	C94.533836,112.613052 94.804543,112.810028 94.946075,113.257889 
	C94.555763,114.007103 94.294609,114.505432 93.825058,115.155685 
	C93.742386,115.871498 93.868111,116.435394 93.949142,117.344284 
	C93.951752,119.481689 93.999062,121.274094 94.046371,123.066498 
z"/>
<path fill="#EBEBF3" opacity="1.000000" stroke="none" 
	d="
M81.966431,119.934944 
	C84.284142,121.458488 86.540253,123.405792 88.593803,125.812935 
	C87.214317,127.410995 86.037384,128.549210 84.860458,129.687439 
	C79.429329,127.986465 81.066696,124.045967 81.966431,119.934944 
z"/>
<path fill="#D3C2C5" opacity="1.000000" stroke="none" 
	d="
M90.202881,137.065262 
	C90.111671,138.089142 90.020462,139.113037 89.613129,140.612137 
	C88.172318,142.066040 87.047630,143.044708 85.922943,144.023376 
	C85.814453,142.964172 85.590988,141.901825 85.619987,140.846405 
	C85.694061,138.150864 85.880684,135.458405 86.216110,132.160553 
	C87.582466,131.706116 88.754982,131.855835 89.957108,132.425507 
	C90.058777,134.252060 90.130829,135.658661 90.202881,137.065262 
z"/>
<path fill="#D4C8C8" opacity="1.000000" stroke="none" 
	d="
M89.927498,132.005554 
	C88.754982,131.855835 87.582466,131.706116 86.201080,131.767212 
	C85.659782,131.434296 85.327354,130.890564 84.927696,130.017136 
	C86.037384,128.549210 87.214317,127.410995 88.682129,126.139061 
	C90.109779,125.712379 91.246544,125.419418 92.739502,125.127380 
	C93.308167,126.846489 93.520630,128.564682 93.876816,130.633804 
	C94.020546,130.984741 93.993599,131.006424 93.628387,131.021179 
	C92.151283,131.359146 91.039391,131.682343 89.927498,132.005554 
z"/>
<path fill="#E4D8D9" opacity="1.000000" stroke="none" 
	d="
M85.987854,144.372498 
	C87.047630,143.044708 88.172318,142.066040 89.601372,140.997925 
	C89.933418,141.679260 89.961105,142.450027 89.988251,143.605194 
	C88.935516,146.315338 87.883316,148.641113 86.451256,150.997955 
	C86.065186,148.926529 86.058983,146.824081 85.987854,144.372498 
z"/>
<path fill="#BFBCC7" opacity="1.000000" stroke="none" 
	d="
M77.458740,153.992035 
	C78.199860,155.119217 78.724487,156.497726 79.249123,157.876236 
	C78.673767,158.012421 78.098412,158.148605 77.523056,158.284790 
	C77.429459,156.937653 77.335854,155.590515 77.458740,153.992035 
z"/>
<path fill="#BFBCC7" opacity="1.000000" stroke="none" 
	d="
M75.984352,163.502411 
	C76.253860,164.228180 76.226189,164.900238 76.198524,165.572296 
	C75.650688,165.450577 75.102852,165.328857 74.555016,165.207138 
	C74.932396,164.620987 75.309784,164.034836 75.984352,163.502411 
z"/>
<path fill="#CD9083" opacity="1.000000" stroke="none" 
	d="
M85.022156,100.026802 
	C84.764221,99.231873 84.506294,98.436943 84.488098,97.318207 
	C84.727837,96.994400 85.187119,96.965675 85.465981,97.109055 
	C86.911072,97.195038 88.077293,97.137634 89.520584,97.137039 
	C90.500496,97.794296 91.203354,98.394753 91.919785,99.397949 
	C91.947380,100.876839 91.961411,101.952995 91.838821,103.327057 
	C91.808266,105.123230 91.914337,106.621498 92.020409,108.119759 
	C91.238541,108.442574 90.456673,108.765396 89.148575,108.818428 
	C87.401993,107.026367 86.181641,105.504097 84.961288,103.981827 
	C84.965637,103.532990 84.969994,103.084145 85.261215,102.263199 
	C85.851379,101.584984 86.154671,101.278870 86.457962,100.972748 
	C85.979355,100.657433 85.500755,100.342117 85.022156,100.026802 
z"/>
<path fill="#A1675A" opacity="1.000000" stroke="none" 
	d="
M75.414413,91.012772 
	C75.119232,90.133553 75.243362,89.249413 75.291641,87.911636 
	C76.147591,86.641098 77.079407,85.824188 78.383591,85.019585 
	C80.444138,85.367859 82.132332,85.703819 83.884560,86.366943 
	C84.018295,87.132858 84.087997,87.571602 83.873505,88.272522 
	C83.358406,90.341400 83.127495,92.148102 82.603134,93.977798 
	C81.919357,94.035759 81.529007,94.070740 81.138664,94.105713 
	C81.030136,90.230789 78.138748,91.121368 75.414413,91.012772 
z"/>
<path fill="#D4A990" opacity="1.000000" stroke="none" 
	d="
M95.075249,113.007004 
	C94.804543,112.810028 94.533836,112.613052 94.124359,112.204071 
	C95.278358,110.863731 96.571121,109.735390 98.361679,108.325844 
	C99.546242,107.988441 100.233017,107.932243 100.919785,107.876038 
	C102.580246,108.402542 104.240700,108.929047 105.971725,109.773361 
	C105.305489,111.072670 104.568687,112.054169 103.124420,113.029236 
	C99.969711,113.017548 97.522484,113.012276 95.075249,113.007004 
z"/>
<path fill="#D4A395" opacity="1.000000" stroke="none" 
	d="
M92.388092,108.104683 
	C91.914337,106.621498 91.808266,105.123230 92.196121,103.324890 
	C94.127960,103.684593 95.565865,104.344376 97.007446,105.363182 
	C97.015778,106.202629 97.020432,106.683044 97.025085,107.163467 
	C95.601982,107.472176 94.178871,107.780891 92.388092,108.104683 
z"/>
<path fill="#B68978" opacity="1.000000" stroke="none" 
	d="
M97.169655,107.361893 
	C97.020432,106.683044 97.015778,106.202629 97.330719,105.316063 
	C98.794922,103.982185 99.939529,103.054451 101.395309,102.109314 
	C102.120667,102.067665 102.534843,102.043427 102.949020,102.019188 
	C102.382538,103.770325 101.816048,105.521469 101.084671,107.574326 
	C100.233017,107.932243 99.546242,107.988441 98.518112,108.040619 
	C97.850334,107.948219 97.562828,107.789459 97.169655,107.361893 
z"/>
<path fill="#B68978" opacity="1.000000" stroke="none" 
	d="
M84.622238,104.066223 
	C86.181641,105.504097 87.401993,107.026367 88.818024,108.823715 
	C83.584244,109.355492 82.486282,108.207008 84.622238,104.066223 
z"/>
<path fill="#BD9587" opacity="1.000000" stroke="none" 
	d="
M81.094841,94.091507 
	C81.529007,94.070740 81.919357,94.035759 82.985832,93.999840 
	C84.170113,94.044312 84.678253,94.089722 85.111259,94.485947 
	C85.086449,95.546387 85.136780,96.256035 85.187119,96.965675 
	C85.187119,96.965675 84.727837,96.994400 84.500626,96.999893 
	C83.850357,96.956543 83.427299,96.907700 82.480659,96.597771 
	C81.658409,95.553024 81.359741,94.769363 81.061073,93.985703 
	C81.061073,93.985703 81.051018,94.077293 81.094841,94.091507 
z"/>
<path fill="#A1675A" opacity="1.000000" stroke="none" 
	d="
M75.114029,95.129250 
	C74.813049,94.069397 74.737778,93.219337 74.822952,92.170624 
	C75.624367,92.728790 76.265343,93.485611 76.906319,94.242432 
	C76.384125,94.607971 75.861931,94.973511 75.114029,95.129250 
z"/>
<path fill="#73523D" opacity="1.000000" stroke="none" 
	d="
M80.775970,94.172577 
	C81.359741,94.769363 81.658409,95.553024 82.163712,96.588989 
	C81.835602,97.227592 81.300865,97.613899 80.766129,98.000198 
	C80.674377,96.786621 80.582626,95.573044 80.775970,94.172577 
z"/>
<path fill="#B68978" opacity="1.000000" stroke="none" 
	d="
M85.005974,100.349220 
	C85.500755,100.342117 85.979355,100.657433 86.457962,100.972748 
	C86.154671,101.278870 85.851379,101.584984 85.265045,101.926559 
	C84.984589,101.531891 84.987190,101.101761 85.005974,100.349220 
z"/>
<path fill="#B07262" opacity="1.000000" stroke="none" 
	d="
M83.820518,86.039780 
	C82.132332,85.703819 80.444138,85.367859 78.310814,84.668747 
	C76.401207,81.558716 74.734337,79.135513 71.002792,80.014030 
	C71.317734,78.871307 71.632675,77.728577 72.400833,76.285812 
	C73.939873,75.932877 75.025703,75.879990 76.446945,75.872238 
	C77.243904,75.287567 77.705437,74.657753 78.518829,73.955490 
	C79.257980,72.584923 79.645256,71.286812 80.425415,69.981689 
	C81.864540,70.016281 82.910789,70.057892 84.119904,70.470657 
	C84.128693,75.907799 83.974609,80.973793 83.820518,86.039780 
z"/>
<path fill="#683F30" opacity="1.000000" stroke="none" 
	d="
M80.032532,69.988701 
	C79.645256,71.286812 79.257980,72.584923 78.210571,73.927841 
	C77.345703,73.950241 77.140961,73.927826 76.682877,73.620621 
	C74.279251,73.887436 72.128975,74.439049 69.978706,74.990662 
	C69.290611,77.070709 68.602516,79.150764 67.576324,82.252876 
	C67.109612,80.460228 66.918442,79.725960 66.798553,78.285721 
	C66.915848,77.048920 66.961853,76.518082 67.007858,75.987236 
	C67.009529,75.255188 67.011208,74.523148 67.265411,73.163361 
	C67.680344,71.355759 67.842743,70.175896 68.312042,68.940353 
	C69.064087,68.266785 69.509232,67.648888 69.987839,66.695381 
	C70.048454,66.136559 70.075607,65.913353 70.366913,65.927734 
	C70.794014,70.121964 73.488853,69.370422 76.333405,69.070251 
	C77.449570,69.107742 78.193939,69.106865 79.105545,69.270683 
	C79.528633,69.616264 79.781883,69.800705 80.032532,69.988701 
z"/>
<path fill="#C58673" opacity="1.000000" stroke="none" 
	d="
M71.050339,80.363495 
	C74.734337,79.135513 76.401207,81.558716 77.938446,84.656433 
	C77.079407,85.824188 76.147591,86.641098 75.070496,87.738594 
	C71.598106,89.552528 71.414917,87.195702 71.221573,84.971588 
	C71.098785,83.559135 71.133682,82.132973 71.050339,80.363495 
z"/>
<path fill="#9C6F62" opacity="1.000000" stroke="none" 
	d="
M70.301483,74.994446 
	C72.128975,74.439049 74.279251,73.887436 76.375633,73.684494 
	C75.813416,74.348907 75.305092,74.664673 74.439087,74.926056 
	C73.359253,74.916580 72.637100,74.961487 71.914948,75.006393 
	C71.484718,75.003670 71.054482,75.000954 70.301483,74.994446 
z"/>
<path fill="#705545" opacity="1.000000" stroke="none" 
	d="
M71.948090,75.224144 
	C72.637100,74.961487 73.359253,74.916580 74.702827,74.993340 
	C75.586678,75.352364 75.849098,75.589729 76.111526,75.827095 
	C75.025703,75.879990 73.939873,75.932877 72.449524,75.931793 
	C72.044998,75.877808 71.981232,75.441902 71.948090,75.224144 
z"/>
<path fill="#705545" opacity="1.000000" stroke="none" 
	d="
M66.770576,76.188736 
	C66.961853,76.518082 66.915848,77.048920 66.772072,77.971962 
	C66.674301,78.364159 66.376221,78.246040 66.221603,78.208252 
	C66.222420,77.577057 66.377853,76.983650 66.770576,76.188736 
z"/>
<path fill="#986752" opacity="1.000000" stroke="none" 
	d="
M98.950287,54.061764 
	C99.142319,54.041580 99.334351,54.021393 99.962601,54.220474 
	C100.905945,54.612118 101.413078,54.784496 102.158730,55.124390 
	C103.269485,55.519363 104.141708,55.746819 105.013939,55.974274 
	C105.178795,56.011074 105.343658,56.047871 105.805824,56.454659 
	C106.395409,57.888847 106.687691,58.953053 106.585960,59.999851 
	C104.736893,60.345894 103.281845,60.709339 101.600624,60.822174 
	C100.566391,58.401627 99.758339,56.231697 98.950287,54.061764 
z"/>
<path fill="#8D6D58" opacity="1.000000" stroke="none" 
	d="
M106.979980,60.017250 
	C106.687691,58.953053 106.395409,57.888847 106.054680,56.502357 
	C107.196678,56.657558 108.387123,57.135052 109.477005,58.115982 
	C108.946449,59.748253 108.516457,60.877090 107.740303,62.034397 
	C106.932770,62.093765 106.471382,62.124668 106.111801,61.876038 
	C106.469063,61.070084 106.724518,60.543667 106.979980,60.017250 
z"/>
<path fill="#73523D" opacity="1.000000" stroke="none" 
	d="
M105.078293,47.950294 
	C105.623390,48.455807 106.168480,48.961319 106.806427,49.734188 
	C106.264000,51.105423 105.628708,52.209297 104.709549,53.544434 
	C103.599731,53.201595 102.773788,52.627506 101.947845,52.053417 
	C102.296577,51.263348 102.645317,50.473282 103.263374,49.220291 
	C104.047897,48.488346 104.563095,48.219322 105.078293,47.950294 
z"/>
<path fill="#8D6D58" opacity="1.000000" stroke="none" 
	d="
M101.717422,52.222672 
	C102.773788,52.627506 103.599731,53.201595 104.699371,53.913437 
	C104.983246,54.478474 104.993423,54.905758 105.008774,55.653660 
	C104.141708,55.746819 103.269485,55.519363 102.047394,54.919327 
	C101.501549,54.289333 101.251198,54.106155 100.946495,53.997219 
	C101.126663,53.462120 101.306824,52.927021 101.717422,52.222672 
z"/>
<path fill="#B68978" opacity="1.000000" stroke="none" 
	d="
M108.086456,62.005932 
	C108.516457,60.877090 108.946449,59.748253 109.603485,58.420101 
	C109.882828,58.629913 109.935135,59.039036 110.047989,59.752556 
	C109.876266,61.216457 109.644005,62.375965 109.000725,63.666260 
	C108.589706,63.797047 108.401657,63.764431 108.333252,63.474174 
	C108.205391,62.791260 108.145920,62.398594 108.086456,62.005932 
z"/>
<path fill="#683F30" opacity="1.000000" stroke="none" 
	d="
M107.740303,62.034397 
	C108.145920,62.398594 108.205391,62.791260 108.243622,63.813431 
	C108.465614,65.272499 108.708847,66.102051 108.952080,66.931610 
	C108.975800,68.315117 108.999512,69.698631 109.043999,71.493584 
	C109.064774,71.905029 109.020424,71.992447 108.693626,71.824776 
	C107.581223,68.489929 106.795609,65.322746 106.010002,62.155571 
	C106.471382,62.124668 106.932770,62.093765 107.740303,62.034397 
z"/>
<path fill="#8D6D58" opacity="1.000000" stroke="none" 
	d="
M108.923943,66.548515 
	C108.708847,66.102051 108.465614,65.272499 108.312019,64.103683 
	C108.401657,63.764431 108.589706,63.797047 108.680145,63.824402 
	C108.812325,64.622978 108.854065,65.394196 108.923943,66.548515 
z"/>
<path fill="#D8A88F" opacity="1.000000" stroke="none" 
	d="
M113.001999,84.003784 
	C112.255623,84.007996 111.507652,84.008781 110.386124,84.017662 
	C109.212685,83.384506 108.412788,82.743263 107.059731,81.809906 
	C105.328621,79.700966 104.150681,77.884125 103.220848,75.907379 
	C103.979729,75.173164 104.490501,74.598854 105.325851,73.908630 
	C106.730736,73.607643 107.811035,73.422577 108.891335,73.237511 
	C110.366020,74.734627 111.840698,76.231743 113.640320,78.223846 
	C114.311340,79.520264 114.657425,80.321701 115.003510,81.123131 
	C115.003510,81.123131 114.974899,81.584999 114.654007,81.864822 
	C113.891022,82.764069 113.448921,83.383492 113.006828,84.002914 
	C113.006828,84.002914 113.000404,84.000374 113.001999,84.003784 
z"/>
<path fill="#855840" opacity="1.000000" stroke="none" 
	d="
M108.922234,72.948761 
	C107.811035,73.422577 106.730736,73.607643 105.202637,73.619881 
	C103.850349,72.608513 102.945854,71.769966 102.036133,70.707016 
	C102.030907,70.482605 102.025391,70.033691 102.060280,69.583969 
	C102.005714,66.447090 101.916252,63.759937 101.826797,61.072788 
	C103.281845,60.709339 104.736893,60.345894 106.585953,59.999847 
	C106.724518,60.543667 106.469063,61.070084 106.111801,61.876038 
	C106.795609,65.322746 107.581223,68.489929 108.671219,71.868362 
	C108.968117,72.273079 108.960625,72.466545 108.922234,72.948761 
z"/>
<path fill="#855840" opacity="1.000000" stroke="none" 
	d="
M115.246529,80.849831 
	C114.657425,80.321701 114.311340,79.520264 113.951431,78.373566 
	C114.215569,77.895523 114.452805,77.710526 114.822281,77.231522 
	C114.995255,76.989716 115.091660,76.881584 115.091660,76.881584 
	C115.091660,76.881584 115.507446,76.912415 115.712929,76.945251 
	C115.775459,78.177567 115.632507,79.377045 115.246529,80.849831 
z"/>
<path fill="#855840" opacity="1.000000" stroke="none" 
	d="
M114.941940,77.038750 
	C114.807983,76.922241 114.727341,76.756691 114.646698,76.591141 
	C114.740532,76.617271 114.834366,76.643402 115.009926,76.775558 
	C115.091660,76.881584 114.995255,76.989716 114.941940,77.038750 
z"/>
<path fill="#E9B59B" opacity="1.000000" stroke="none" 
	d="
M113.314621,83.951340 
	C113.448921,83.383492 113.891022,82.764069 114.636780,82.095558 
	C114.501099,82.664238 114.061752,83.282005 113.314621,83.951340 
z"/>
<path fill="#B57C65" opacity="1.000000" stroke="none" 
	d="
M75.961601,69.031876 
	C73.488853,69.370422 70.794014,70.121964 70.406349,65.783630 
	C70.181648,65.401939 70.237038,65.101021 70.603760,64.993599 
	C72.054451,61.082767 73.138412,57.279362 74.222366,53.475952 
	C75.915001,52.318970 77.607628,51.161987 79.624939,49.871548 
	C81.697388,49.472069 83.445145,49.206047 85.531876,49.308006 
	C82.879387,52.476349 77.380302,53.146332 77.710358,59.278706 
	C76.958679,62.726517 76.460144,65.879196 75.961601,69.031876 
z"/>
<path fill="#81604A" opacity="1.000000" stroke="none" 
	d="
M73.942337,53.218521 
	C73.138412,57.279362 72.054451,61.082767 70.358078,64.855247 
	C68.810364,64.914398 67.875061,65.004478 66.939751,65.094551 
	C66.470856,63.758286 66.001961,62.422020 65.252167,61.041702 
	C65.297287,59.288548 65.623306,57.579441 66.282562,55.326172 
	C67.096085,53.868900 67.576355,52.955791 68.056633,52.042683 
	C68.056633,52.042683 68.046844,52.023033 68.054459,52.041351 
	C69.928810,52.360142 71.795563,52.660618 73.942337,53.218521 
z"/>
<path fill="#563B2C" opacity="1.000000" stroke="none" 
	d="
M67.710144,52.103386 
	C67.576355,52.955791 67.096085,53.868900 66.348145,54.958763 
	C66.508202,54.145042 66.935936,53.154568 67.710144,52.103386 
z"/>
<path fill="#C6C5D1" opacity="1.000000" stroke="none" 
	d="
M100.843796,163.052032 
	C100.848534,162.610245 100.853271,162.168457 100.902496,160.976898 
	C101.453682,157.526688 102.150558,154.842499 102.383072,152.118668 
	C102.491653,150.846680 101.701752,149.498016 101.319077,148.184097 
	C101.245262,147.705246 101.171440,147.226410 101.176620,146.129547 
	C101.497543,145.007767 101.739464,144.503998 101.981384,144.000229 
	C102.008163,143.570663 102.034943,143.141083 102.085602,142.390656 
	C103.905548,138.489563 105.701622,134.909348 107.805099,131.150696 
	C108.351295,132.012497 108.980057,133.140594 108.768562,134.079407 
	C106.651062,143.478867 104.395332,152.847198 101.777328,162.620544 
	C101.198654,163.028549 101.021225,163.040298 100.843796,163.052032 
z"/>
<path fill="#B2B1BE" opacity="1.000000" stroke="none" 
	d="
M100.748856,163.203613 
	C101.021225,163.040298 101.198654,163.028549 101.642281,163.000061 
	C101.923447,163.153046 101.938423,163.322784 101.880081,163.737366 
	C101.422485,163.773209 101.038208,163.564194 100.748856,163.203613 
z"/>
<path fill="#37373A" opacity="1.000000" stroke="none" 
	d="
M129.175049,132.880280 
	C129.177795,132.655441 129.355591,132.310883 129.533386,131.966324 
	C129.472290,132.231079 129.411179,132.495819 129.175049,132.880280 
z"/>
<path fill="#D4AFA1" opacity="1.000000" stroke="none" 
	d="
M94.946075,113.257889 
	C97.522484,113.012276 99.969711,113.017548 102.804947,113.063751 
	C100.338287,116.311653 97.483620,119.518608 94.337662,122.896027 
	C93.999062,121.274094 93.951752,119.481689 94.150543,117.189194 
	C94.275574,116.127319 94.154510,115.565536 94.033455,115.003761 
	C94.294609,114.505432 94.555763,114.007103 94.946075,113.257889 
z"/>
<path fill="#D4C8C8" opacity="1.000000" stroke="none" 
	d="
M96.934364,135.662964 
	C96.533150,135.991211 96.096069,135.988129 95.078957,135.722168 
	C94.330482,133.975006 94.162041,132.490707 93.993599,131.006424 
	C93.993599,131.006424 94.020546,130.984741 94.036140,130.974594 
	C95.000656,132.420166 95.949577,133.875900 96.934364,135.662964 
z"/>
<path fill="#EDB9A2" opacity="1.000000" stroke="none" 
	d="
M102.972740,76.067284 
	C104.150681,77.884125 105.328621,79.700966 106.750687,81.764938 
	C106.995277,82.753693 106.995735,83.495316 106.639938,84.625885 
	C104.521652,86.033417 102.759613,87.052010 100.694977,87.990173 
	C99.907722,87.294647 99.423065,86.679535 98.953339,85.651100 
	C98.651405,82.840340 98.334549,80.442902 98.230942,78.012451 
	C98.444199,77.979424 98.872688,77.926147 99.154358,77.953293 
	C99.624382,77.991096 99.812737,78.001762 100.139366,78.132240 
	C100.183533,77.840538 100.089409,77.429016 99.995682,76.785980 
	C99.996071,76.554466 99.996696,76.091431 100.368851,76.108459 
	C101.484917,76.106087 102.228828,76.086685 102.972740,76.067284 
z"/>
<path fill="#D8A88F" opacity="1.000000" stroke="none" 
	d="
M100.997574,88.070602 
	C102.759613,87.052010 104.521652,86.033417 106.641098,84.996895 
	C106.691750,86.092308 106.385002,87.205650 105.786758,88.928528 
	C104.623756,91.981903 104.601326,93.950203 107.996643,94.004402 
	C107.515984,95.211594 107.035324,96.418793 106.074768,97.596680 
	C104.070900,97.711487 102.546921,97.855591 100.957306,97.679321 
	C100.254295,96.252007 99.616920,95.145073 99.344902,93.931015 
	C100.139366,91.906128 100.568474,89.988365 100.997574,88.070602 
z"/>
<path fill="#D4A990" opacity="1.000000" stroke="none" 
	d="
M108.246887,93.739677 
	C104.601326,93.950203 104.623756,91.981903 105.742645,89.273293 
	C109.423195,89.039307 109.346878,91.040054 108.246887,93.739677 
z"/>
<path fill="#D4A990" opacity="1.000000" stroke="none" 
	d="
M101.022949,97.999695 
	C102.546921,97.855591 104.070900,97.711487 105.828934,97.813141 
	C105.222015,99.277290 104.381027,100.495682 103.244537,101.866631 
	C102.534843,102.043427 102.120667,102.067665 101.366821,101.694115 
	C101.025749,100.197449 101.024353,99.098572 101.022949,97.999695 
z"/>
<path fill="#D79C81" opacity="1.000000" stroke="none" 
	d="
M77.963486,58.983574 
	C77.380302,53.146332 82.879387,52.476349 85.916901,49.321609 
	C87.693840,49.334503 89.424736,49.701771 91.572250,50.417175 
	C92.012505,51.163979 92.036148,51.562649 91.665558,51.976288 
	C84.842529,53.303234 81.452713,56.270828 80.676086,60.946198 
	C79.567665,60.257042 78.765579,59.620308 77.963486,58.983574 
z"/>
<path fill="#B57E67" opacity="1.000000" stroke="none" 
	d="
M92.059784,51.961319 
	C92.036148,51.562649 92.012505,51.163979 91.954155,50.468170 
	C95.021797,49.549377 97.071701,50.919876 98.687851,53.834961 
	C99.758339,56.231697 100.566391,58.401627 101.600624,60.822174 
	C101.916252,63.759937 102.005714,66.447090 101.727783,69.578918 
	C100.559372,69.733078 99.758347,69.442551 99.233284,68.933609 
	C99.657433,67.814331 99.805626,66.913490 99.961906,65.620705 
	C99.034500,63.064453 98.099007,60.900135 97.159103,58.445347 
	C97.094887,57.772552 97.035088,57.390224 96.856140,56.704575 
	C95.177925,54.921272 93.618851,53.441296 92.059784,51.961319 
z"/>
<path fill="#6C4F3D" opacity="1.000000" stroke="none" 
	d="
M105.024597,47.615540 
	C104.563095,48.219322 104.047897,48.488346 103.270416,48.879929 
	C101.867661,47.769566 100.727180,46.536640 99.308228,45.156334 
	C99.482002,44.134373 99.934258,43.259789 100.657997,42.247910 
	C102.276619,43.834003 103.623756,45.557396 105.024597,47.615540 
z"/>
<path fill="#664B3E" opacity="1.000000" stroke="none" 
	d="
M100.736145,53.994118 
	C101.251198,54.106155 101.501549,54.289333 101.808868,54.751812 
	C101.413078,54.784496 100.905945,54.612118 100.252014,54.209229 
	C100.105217,53.978718 100.525787,53.991020 100.736145,53.994118 
z"/>
<path fill="#705545" opacity="1.000000" stroke="none" 
	d="
M66.900177,65.470467 
	C67.875061,65.004478 68.810364,64.914398 69.991356,64.962669 
	C70.237038,65.101021 70.181648,65.401939 70.142212,65.546036 
	C70.075607,65.913353 70.048454,66.136559 69.736809,66.824120 
	C68.969917,67.857666 68.487526,68.426857 68.005135,68.996040 
	C67.842743,70.175896 67.680344,71.355759 67.270432,72.797371 
	C66.968803,70.654877 66.914703,68.250633 66.900177,65.470467 
z"/>
<path fill="#3B3B3C" opacity="1.000000" stroke="none" 
	d="
M169.974701,167.642609 
	C168.167511,166.244110 166.356827,164.446381 164.448029,162.759705 
	C163.300552,161.745743 162.000168,160.904892 160.407120,159.968323 
	C159.010376,158.447418 157.884399,156.997070 156.970474,155.423553 
	C156.326965,154.315659 155.971664,153.040375 155.487701,151.839828 
	C156.816452,151.914856 158.394028,151.565933 159.415115,152.165192 
	C160.913055,153.044327 162.012939,154.601730 163.609131,155.953552 
	C165.933868,159.788025 167.931870,163.539093 169.974701,167.642609 
z"/>
<path fill="#D8D4DE" opacity="1.000000" stroke="none" 
	d="
M99.055305,161.019775 
	C98.686249,162.440735 98.415695,163.900879 97.877144,165.254395 
	C97.746552,165.582611 96.732529,165.559341 96.054512,165.398071 
	C96.886238,160.807358 92.942963,155.965073 97.550217,151.999680 
	C97.928207,153.254547 98.289841,154.455109 98.879242,156.288040 
	C99.089775,158.286865 99.072540,159.653320 99.055305,161.019775 
z"/>
<path fill="#EADCDE" opacity="1.000000" stroke="none" 
	d="
M93.628387,131.021179 
	C94.162041,132.490707 94.330482,133.975006 94.750992,135.731873 
	C95.004143,136.446213 95.005241,136.887970 95.003174,137.664856 
	C95.000000,138.000000 94.992271,138.008392 94.992271,138.008392 
	C93.622017,137.722565 92.251762,137.436737 90.542191,137.108093 
	C90.130829,135.658661 90.058777,134.252060 89.957108,132.425507 
	C91.039391,131.682343 92.151283,131.359146 93.628387,131.021179 
z"/>
<path fill="#B2B1BE" opacity="1.000000" stroke="none" 
	d="
M99.354790,161.016388 
	C99.072540,159.653320 99.089775,158.286865 99.135590,156.515533 
	C99.821884,153.714523 100.479591,151.318390 101.228195,148.553162 
	C101.701752,149.498016 102.491653,150.846680 102.383072,152.118668 
	C102.150558,154.842499 101.453682,157.526688 100.897301,160.645554 
	C100.449837,161.046982 100.052055,161.029984 99.354790,161.016388 
z"/>
<path fill="#EEF0F5" opacity="1.000000" stroke="none" 
	d="
M101.664124,144.008698 
	C101.739464,144.503998 101.497543,145.007767 101.140945,145.767761 
	C100.542305,145.711533 100.058342,145.399094 99.574379,145.086655 
	C100.165207,144.730148 100.756035,144.373657 101.664124,144.008698 
z"/>
<path fill="#EADCDE" opacity="1.000000" stroke="none" 
	d="
M95.004105,137.996216 
	C95.482491,138.281677 95.956764,138.570923 96.431030,138.860168 
	C96.268631,139.051605 96.106232,139.243027 95.943832,139.434464 
	C95.656982,139.134201 95.370132,138.833939 95.037781,138.271027 
	C94.992271,138.008392 95.000000,138.000000 95.004105,137.996216 
z"/>
<path fill="#D4A990" opacity="1.000000" stroke="none" 
	d="
M93.825058,115.155685 
	C94.154510,115.565536 94.275574,116.127319 94.195236,116.844193 
	C93.868111,116.435394 93.742386,115.871498 93.825058,115.155685 
z"/>
<path fill="#E0AE9D" opacity="1.000000" stroke="none" 
	d="
M100.957306,97.679321 
	C101.024353,99.098572 101.025749,100.197449 101.055649,101.711517 
	C99.939529,103.054451 98.794922,103.982185 97.327042,104.957039 
	C95.565865,104.344376 94.127960,103.684593 92.332748,103.026978 
	C91.961411,101.952995 91.947380,100.876839 92.302612,99.390144 
	C95.900642,98.925766 96.011475,96.618965 96.433334,94.215088 
	C97.523514,94.116013 98.251526,94.077080 98.979546,94.038147 
	C99.616920,95.145073 100.254295,96.252007 100.957306,97.679321 
z"/>
<path fill="#D4A395" opacity="1.000000" stroke="none" 
	d="
M96.071167,94.275223 
	C96.011475,96.618965 95.900642,98.925766 92.289047,98.987404 
	C91.203354,98.394753 90.500496,97.794296 89.480148,96.911217 
	C89.162643,96.628601 89.141121,96.171989 89.340195,96.010963 
	C89.696060,95.549973 89.852859,95.250008 90.095886,94.595154 
	C92.145142,94.251923 94.108154,94.263573 96.071167,94.275223 
z"/>
<path fill="#D3C2C5" opacity="1.000000" stroke="none" 
	d="
M89.141121,96.171989 
	C89.141121,96.171989 89.162643,96.628601 89.203079,96.854416 
	C88.077293,97.137634 86.911072,97.195038 85.465973,97.109055 
	C85.136780,96.256035 85.086449,95.546387 85.438522,94.504562 
	C86.270378,94.260384 86.699837,94.348396 87.203659,94.706985 
	C87.899055,95.375702 88.520088,95.773849 89.141121,96.171989 
z"/>
<path fill="#E3A793" opacity="1.000000" stroke="none" 
	d="
M98.017685,78.045471 
	C98.334549,80.442902 98.651405,82.840340 98.588776,85.588814 
	C94.708763,85.939857 91.208237,85.939857 86.768425,85.939857 
	C88.128868,87.741272 88.488770,88.217842 89.499146,89.555725 
	C86.951202,88.818565 85.554443,88.414459 84.157684,88.010353 
	C84.087997,87.571602 84.018295,87.132858 83.884560,86.366943 
	C83.974609,80.973793 84.128693,75.907799 84.191711,70.149307 
	C85.757141,69.689354 87.413635,69.921921 89.113159,70.491333 
	C89.779816,72.548485 90.403450,74.268776 90.898979,76.207657 
	C93.186478,76.965988 95.602081,77.505730 98.017685,78.045471 
z"/>
<path fill="#CC8F81" opacity="1.000000" stroke="none" 
	d="
M83.873505,88.272522 
	C85.554443,88.414459 86.951202,88.818565 89.499146,89.555725 
	C88.488770,88.217842 88.128868,87.741272 86.768425,85.939857 
	C91.208237,85.939857 94.708763,85.939857 98.573845,86.002144 
	C99.423065,86.679535 99.907722,87.294647 100.694977,87.990173 
	C100.568474,89.988365 100.139366,91.906128 99.344902,93.931015 
	C98.251526,94.077080 97.523514,94.116013 96.433334,94.215088 
	C94.108154,94.263573 92.145142,94.251923 89.808670,94.493454 
	C88.666565,94.643227 87.897934,94.539818 87.129295,94.436409 
	C86.699837,94.348396 86.270378,94.260384 85.513657,94.153755 
	C84.678253,94.089722 84.170113,94.044312 83.279266,93.976852 
	C83.127495,92.148102 83.358406,90.341400 83.873505,88.272522 
M86.554504,91.505051 
	C86.554504,91.505051 86.479156,91.542809 86.554504,91.505051 
z"/>
<path fill="#E1AB91" opacity="1.000000" stroke="none" 
	d="
M89.070129,70.154480 
	C87.413635,69.921921 85.757141,69.689354 84.028839,69.778152 
	C82.910789,70.057892 81.864540,70.016281 80.425415,69.981689 
	C79.781883,69.800705 79.528633,69.616264 79.174614,68.895088 
	C79.711761,65.902733 80.347092,63.450680 80.982414,60.998623 
	C81.452713,56.270828 84.842529,53.303234 91.665558,51.976288 
	C93.618851,53.441296 95.177925,54.921272 96.424255,56.702995 
	C92.960701,57.421505 88.952477,55.574749 88.113213,60.087406 
	C89.240852,62.326698 89.556412,64.540092 90.009277,66.725021 
	C90.169456,67.497787 90.664650,68.201126 90.756851,69.076294 
	C90.027916,69.529106 89.549019,69.841789 89.070129,70.154480 
z"/>
<path fill="#462C1D" opacity="1.000000" stroke="none" 
	d="
M76.446945,75.872238 
	C75.849098,75.589729 75.586678,75.352364 75.060501,75.047714 
	C75.305092,74.664673 75.813416,74.348907 76.628983,73.969284 
	C77.140961,73.927826 77.345703,73.950241 77.858704,74.000290 
	C77.705437,74.657753 77.243904,75.287567 76.446945,75.872238 
z"/>
<path fill="#D29A82" opacity="1.000000" stroke="none" 
	d="
M80.676086,60.946198 
	C80.347092,63.450680 79.711761,65.902733 79.007370,68.730385 
	C78.193939,69.106865 77.449570,69.107742 76.333405,69.070251 
	C76.460144,65.879196 76.958679,62.726517 77.710358,59.278706 
	C78.765579,59.620308 79.567665,60.257042 80.676086,60.946198 
z"/>
<path fill="#81604A" opacity="1.000000" stroke="none" 
	d="
M68.312042,68.940353 
	C68.487526,68.426857 68.969917,67.857666 69.703339,67.159737 
	C69.509232,67.648888 69.064087,68.266785 68.312042,68.940353 
z"/>
<path fill="#B88670" opacity="1.000000" stroke="none" 
	d="
M103.220848,75.907379 
	C102.228828,76.086685 101.484917,76.106087 100.357826,75.890091 
	C99.974648,75.654686 99.987137,75.218735 99.947418,74.883972 
	C98.823524,73.629074 97.739349,72.708946 95.644920,70.931419 
	C98.604256,70.931419 100.322815,70.931419 102.041367,70.931419 
	C102.945854,71.769966 103.850349,72.608513 104.878052,73.735809 
	C104.490501,74.598854 103.979729,75.173164 103.220848,75.907379 
z"/>
<path fill="#936655" opacity="1.000000" stroke="none" 
	d="
M102.036133,70.707016 
	C100.322815,70.931419 98.604256,70.931419 95.644920,70.931419 
	C97.739349,72.708946 98.823524,73.629074 99.715057,74.836426 
	C99.522415,75.123650 99.048569,75.121223 98.826920,75.182083 
	C98.333588,75.400612 98.119247,75.615494 97.746971,75.945343 
	C97.531693,76.003098 97.097641,76.104729 96.803673,75.963928 
	C94.682167,75.878433 92.854622,75.933754 91.027084,75.989075 
	C90.403450,74.268776 89.779816,72.548485 89.113159,70.491333 
	C89.549019,69.841789 90.027916,69.529106 91.131470,69.116150 
	C94.156532,69.061256 96.556931,69.106644 98.957329,69.152031 
	C99.758347,69.442551 100.559372,69.733078 101.692886,70.028648 
	C102.025391,70.033691 102.030907,70.482605 102.036133,70.707016 
z"/>
<path fill="#B88670" opacity="1.000000" stroke="none" 
	d="
M90.898979,76.207657 
	C92.854622,75.933754 94.682167,75.878433 96.919907,76.197182 
	C97.844299,77.022881 98.358490,77.474510 98.872688,77.926147 
	C98.872688,77.926147 98.444199,77.979424 98.230942,78.012451 
	C95.602081,77.505730 93.186478,76.965988 90.898979,76.207657 
z"/>
<path fill="#D8A88F" opacity="1.000000" stroke="none" 
	d="
M99.154358,77.953293 
	C98.358490,77.474510 97.844299,77.022881 97.213867,76.337982 
	C97.097641,76.104729 97.531693,76.003098 97.962280,75.872131 
	C98.666618,75.592896 98.885185,75.386246 99.048569,75.121223 
	C99.048569,75.121223 99.522415,75.123650 99.754776,75.171188 
	C99.987137,75.218735 99.974648,75.654686 99.985672,75.873062 
	C99.996696,76.091431 99.996071,76.554466 99.996437,77.034615 
	C99.996803,77.514763 100.001083,78.012428 100.001083,78.012428 
	C99.812737,78.001762 99.624382,77.991096 99.154358,77.953293 
z"/>
<path fill="#E3A793" opacity="1.000000" stroke="none" 
	d="
M100.139366,78.132240 
	C100.001083,78.012428 99.996803,77.514763 99.996048,77.266129 
	C100.089409,77.429016 100.183533,77.840538 100.139366,78.132240 
z"/>
<path fill="#E9B59B" opacity="1.000000" stroke="none" 
	d="
M99.233284,68.933609 
	C96.556931,69.106644 94.156532,69.061256 91.381516,68.976013 
	C90.664650,68.201126 90.169456,67.497787 90.009277,66.725021 
	C89.556412,64.540092 89.240852,62.326698 88.113213,60.087406 
	C88.952477,55.574749 92.960701,57.421505 96.543396,57.006317 
	C97.035088,57.390224 97.094887,57.772552 97.115097,58.835850 
	C98.629601,61.418598 95.226608,65.516876 99.953819,66.012642 
	C99.805626,66.913490 99.657433,67.814331 99.233284,68.933609 
z"/>
<path fill="#E1AB91" opacity="1.000000" stroke="none" 
	d="
M99.961906,65.620705 
	C95.226608,65.516876 98.629601,61.418598 97.119507,59.126320 
	C98.099007,60.900135 99.034500,63.064453 99.961906,65.620705 
z"/>
<path fill="#EADCDE" opacity="1.000000" stroke="none" 
	d="
M87.203659,94.706985 
	C87.897934,94.539818 88.666565,94.643227 89.722427,94.848343 
	C89.852859,95.250008 89.696060,95.549973 89.340195,96.010963 
	C88.520088,95.773849 87.899055,95.375702 87.203659,94.706985 
z"/>
<path fill="#E3A793" opacity="1.000000" stroke="none" 
	d="
M86.516830,91.523926 
	C86.479156,91.542809 86.554504,91.505051 86.516830,91.523926 
z"/>
<path fill="#B88670" opacity="1.000000" stroke="none" 
	d="
M98.826920,75.182083 
	C98.885185,75.386246 98.666618,75.592896 98.177559,75.814377 
	C98.119247,75.615494 98.333588,75.400612 98.826920,75.182083 
z"/>
</svg>