<svg version="1.1" id="Layer_1" xmlns="http://www.w3.org/2000/svg" xmlns:xlink="http://www.w3.org/1999/xlink" x="0px" y="0px"
	 width="100%" viewBox="0 0 192 192" enable-background="new 0 0 192 192" xml:space="preserve">
<path fill="#FDF3F7" opacity="1.000000" stroke="none" 
	d="
M6.000000,193.000000 
	C4.333333,193.000000 2.666667,193.000000 1.000000,193.000000 
	C1.000000,129.000000 1.000000,65.000000 1.000000,1.000000 
	C65.000000,1.000000 129.000000,1.000000 193.000000,1.000000 
	C193.000000,65.000000 193.000000,129.000000 193.000000,193.000000 
	C191.666641,193.000000 190.333282,193.000000 188.389771,192.598480 
	C187.333740,189.071152 187.169662,185.873688 186.396088,182.831192 
	C181.517212,163.642319 169.236191,149.952728 152.130814,141.382355 
	C117.505569,124.033936 81.654503,123.759560 46.483841,139.120270 
	C23.550978,149.136154 8.279273,166.618927 6.000000,193.000000 
M126.547913,44.951027 
	C112.177147,31.555624 91.905655,29.148552 75.380829,38.875370 
	C58.995419,48.520119 50.895443,67.889053 55.641075,86.077690 
	C60.107956,103.197937 74.754303,116.269333 91.385551,117.978470 
	C110.222595,119.914307 127.147575,110.934784 135.215744,94.724480 
	C143.429230,78.222206 140.302063,59.345329 126.547913,44.951027 
z"/>
<path fill="#E01F5B" opacity="1.000000" stroke="none" 
	d="
M6.468657,193.000000 
	C8.279273,166.618927 23.550978,149.136154 46.483841,139.120270 
	C81.654503,123.759560 117.505569,124.033936 152.130814,141.382355 
	C169.236191,149.952728 181.517212,163.642319 186.396088,182.831192 
	C187.169662,185.873688 187.333740,189.071152 187.889801,192.598480 
	C127.645775,193.000000 67.291542,193.000000 6.468657,193.000000 
z"/>
<path fill="#E01F5B" opacity="1.000000" stroke="none" 
	d="
M126.800262,45.199699 
	C140.302063,59.345329 143.429230,78.222206 135.215744,94.724480 
	C127.147575,110.934784 110.222595,119.914307 91.385551,117.978470 
	C74.754303,116.269333 60.107956,103.197937 55.641075,86.077690 
	C50.895443,67.889053 58.995419,48.520119 75.380829,38.875370 
	C91.905655,29.148552 112.177147,31.555624 126.800262,45.199699 
z"/>
</svg>